<svg xmlns="http://www.w3.org/2000/svg" enable-background="new 0 0 613 184" viewBox="0 0 613 184" style="&#10;"><g fill="#fff"><path d="m161 5.9h27.6v170.4h-27.6z"/><path d="m284.6 122.3c0 26.4-21.6 28.8-28.8 28.8-16.8 0-19.2-15.6-19.2-24v-66h-27.6v64.8c0 15.6 4.8 30 14.4 38.4 8.4 8.4 19.2 12 32.4 12 9.6 0 21.6-2.4 28.8-9.6v9.6h27.6v-115.2h-27.6z"/><path d="m366.2 19.1h-27.6v42h-20.4v26.4h20.4v88.8h27.6v-88.8h20.4v-26.4h-20.4z"/><path d="m473 141.5c-6 4.8-14.4 8.4-22.8 8.4-19.2 0-32.4-14.4-32.4-33.6s13.2-32.4 32.4-32.4c8.4 0 16.8 2.4 22.8 8.4l3.6 3.6 19.2-18-4.8-3.6c-10.8-9.6-25.2-15.6-40.8-15.6-33.6 0-58.8 25.2-58.8 58.8s25.2 58.8 58.8 58.8c15.6 0 30-6 40.8-15.6l4.8-3.6-19.2-19.2z"/><path d="m593 70.7c-8.4-8.4-16.8-12-30-12-9.6 0-19.2 2.4-26.4 9.6v-62.4h-27.6v170.4h27.6v-63.6c0-26.4 18-28.8 25.2-28.8 16.8 0 15.6 15.6 15.6 24v67.2h27.6v-66c0-15.6-3.6-30-12-38.4z"/><circle cx="449" cy="117.5" r="19.2"/><path d="m122.6 134.3c-9.6 9.6-24 15.6-39.6 15.6-30 0-51.6-24-51.6-56.4s21.6-56.4 52.8-56.4c14.4 0 28.8 6 39.6 16.8l3.6 3.6 18-18-3.6-3.6c-15.6-15.6-36-24-57.6-24-45.6-1.2-79.2 34.8-79.2 81.6s33.6 82.8 78 82.8c21.6 0 43.2-8.4 57.6-24l3.6-3.6-18-18z"/></g></svg>