<svg xmlns="http://www.w3.org/2000/svg" width="612" height="356" viewBox="0 212.5 612 356">
                    <path d="M30.728 461.596H12.906V431.7H31v-38.8h32.76v38.8h18.084v29.885H63.75v82.308H30.728v-82.308zm71.038 82.307h32.76v-51.375c0-5.242 0-8.918.262-10.753a26.32 26.32 0 0 1 .787-7.083 18.63 18.63 0 0 1 1.048-4.455 17.47 17.47 0 0 1 1.572-3.146c.982-1.437 2.125-2.755 3.407-3.932a36.81 36.81 0 0 1 4.717-3.145 29.07 29.07 0 0 1 5.773-1.835 28.53 28.53 0 0 1 6.814-.786 30.91 30.91 0 0 1 9.173 1.311c1.85.692 3.48 1.87 4.717 3.407 1.048 1.572 2.125 4.193 2.883 8.125.893 5.284 1.332 10.635 1.3 15.994v57.665h32.768v-66.838c0-3.407 0-7.6-.262-12.318-.136-2.82-.487-5.627-1.048-8.394a40.52 40.52 0 0 0-1.834-6.028c-.688-1.884-1.66-3.652-2.883-5.24a29.18 29.18 0 0 0-6.297-7.34 41.95 41.95 0 0 0-8.387-5.241 62.14 62.14 0 0 0-9.959-3.152 53.91 53.91 0 0 0-11.532-1.048c-4.57.083-9.126.52-13.628 1.3a56.21 56.21 0 0 0-11.8 3.938 48.18 48.18 0 0 0-9.96 6.814v-73.915h-31.45V543.9h1.047zM262.97 431.448H230.2v112.455h32.767V494.1c0-4.455.262-9.704.787-15.47a38.25 38.25 0 0 1 3.669-13.891c2.36-4.718 6.814-6.814 12.842-6.814 3.93 0 6.814.524 8.9 1.835 2.125 1.048 4.456 2.883 7.338 4.958l12.58-28.566c-7.083-3.9-14.436-6.015-21.76-6.015h-2.883c-8.648.787-15.725 3.938-21.5 9.967v-8.656zm163.56 124.25l4.193-8.387 53.996-108.778 3.407-6.56H451.95l-1.3 2.9-22.277 51.376-1.572 4.25-.262-.786-1.3-3.407-22.284-51.638-1.3-2.946h-36.168l3.146 6.56L422.6 547.06l3.933 8.648zm93.387-84.927c1.4-3.4 3.56-6.442 6.3-8.9 3.67-3.146 8.9-4.455 15.725-4.455 4.698-.036 9.348.947 13.628 2.883 3.932 2.125 6.814 5.503 8.387 10.483h-44.03zm79.156 25.167v-9.173c.097-7.905-1.04-15.777-3.365-23.333a50.6 50.6 0 0 0-11.794-19.656c-10.242-10.483-24.14-15.76-41.96-15.76-17.035 0-31.167 5.773-42.203 17.043s-16.5 25.685-16.5 42.988c0 18.084 5.24 32.5 15.987 43.506 10.483 11.015 24.904 16.52 42.727 16.52 12.317 0 23.063-2.62 32.505-8.132 4.8-2.792 9.144-6.33 12.843-10.483a69.02 69.02 0 0 0 6.027-7.6 79.03 79.03 0 0 0 4.959-8.387l-26.995-14.415c-5.77 12.84-14.684 19.392-26.74 19.656h-.524c-15.725 0-24.636-7.6-26.732-22.54h81.798l-.022-.233zM369.65 381.4c-17.304-1.3-31.98 18.87-31.98 18.87s-4.718-17.822-35.65-25.954c12.587 4.193 18.877 41.155 18.877 41.155V543.9h32.76V418.345c.5-6.3 2.884-30.664 15.994-36.954z" fill="#443f35"></path>
                    <path d="M379.086 301.965s9.697 22.54 2.358 42.5-28.836 29.615-28.836 29.615-9.697-22.54-2.358-42.458 28.836-29.657 28.836-29.657zm50.064-25.685s3.932 21.25-6.027 37.478c-9.967 15.994-29.885 20.712-29.885 20.712s-3.932-21.25 6.028-37.485c9.96-15.987 29.884-20.705 29.884-20.705zm-66.058-36.174s9.966 19.394 5.24 37.485c-4.717 18.346-22.54 28.588-22.54 28.588s-9.96-19.394-5.24-37.485c4.98-18.104 22.54-28.588 22.54-28.588zm-128.96 57.142s20.967-5.242 37.747 3.67 22.54 28.574 22.54 28.574-20.967 5.242-37.747-3.67c-16.5-8.918-22.54-28.574-22.54-28.574zM393.5 256.094s5.767 13.628 1.835 25.953c-4.193 12.318-16.773 18.346-16.773 18.346s-5.766-13.628-1.834-25.946c4.192-12.063 16.772-18.353 16.772-18.353zm-126.076 8.648s14.415 2.125 22.54 12.042c8.125 9.697 6.814 23.587 6.814 23.587s-14.415-2.125-22.54-12.042-6.814-23.587-6.814-23.587zm41.41-27.782s15.47 10.22 19.664 25.946-4.96 30.67-4.96 30.67-15.5-10.22-19.663-25.954c-3.953-15.462 4.958-30.663 4.958-30.663zm141.284 95.152s-4.193 24.083-23.85 35.905c-19.4 11.8-46.92 7.083-46.92 7.083s4.193-24.083 23.85-35.905c19.678-12.063 46.92-7.083 46.92-7.083zm-31.72 66.576s-14.167 8.9-27.78 5.503-22.015-17.82-22.015-17.82 14.167-8.918 27.78-5.504S418.4 398.69 418.4 398.69zM308.3 289.647s24.38 13.366 31.166 38-6.3 50.844-6.3 50.844S308.786 365.135 302 340.5c-6.814-24.4 6.3-50.85 6.3-50.85zm-82.816 56.355s24.083-12.58 46.92-6.552 35.643 28.333 35.643 28.333-24.083 12.587-46.913 6.552-35.65-28.333-35.65-28.333zm28.808 50.328s10.5-14.676 25.954-17.035c15.463-2.125 29.615 9.173 29.615 9.173s-10.483 14.677-25.946 17.035c-15.457 2.097-29.623-9.173-29.623-9.173z" fill="#6a8237"></path>
                </svg>