<svg version="1.1" id="Layer_1" xmlns="http://www.w3.org/2000/svg" xmlns:xlink="http://www.w3.org/1999/xlink" x="0px" y="0px" viewBox="0 0 183.7 109.7" style="enable-background:new 0 0 183.7 109.7;" xml:space="preserve">
<style type="text/css">
	.st0{fill:#F9A736;}
	.st1{fill:#0F406B;}
	.st2{clip-path:url(#SVGID_2_);fill:#0F406B;}
	.st3{fill:#FFFFFF;}
</style>
<path class="st0" d="M12.7,52.2l-0.5-0.4l-0.6-0.9c0.3,0.1,0.7,0.3,1.1,0.4C12.7,51.6,12.7,52,12.7,52.2"/>
<path class="st0" d="M12.6,50.9l-0.8-0.7l-0.5,0.1l-0.7-0.9c-0.2,0-0.4,0.1-0.6,0.1c-0.3-0.5-0.8-0.2-1.1-0.7  c-0.3,0.2-0.3-0.3-0.3-0.1c-0.7-1.1-1.3-2.2-1.8-3.4c0.2-0.7,0.3-0.8,1.2-1.6l0.6,0.8C8.7,44,8.8,43.4,9,42.9l0.8,0.5  c0.1,0.5,0.2,1.2,0.3,1.6c0.3-0.3,0.7-0.8,1-1.1c1.1,1.8,1.3,2.1,2.6,3.8C13,49.1,12.8,49.5,12.6,50.9"/>
<path class="st0" d="M12.7,44.4L12,43l-0.6,0L11,43.4l-0.8-0.8c-0.3-0.5-0.7-1.2-1-1.7l0.3-0.3l0.3,0.7c0.3-0.2,0.7-0.4,1-0.5  c0.4,0.4,1,0.9,1.4,1.3c0.3,0.7,0.7,1.6,1,2.3L12.7,44.4"/>
<path class="st0" d="M6.7,34.4l0.6-1.2c0.2,2,0.2,2.1,0.5,3.4C7.1,35.3,7,35.2,6.7,34.4"/>
<path class="st0" d="M6.6,43.1c-1.4-3.8-1.3-5-1.4-6.5c0.1,0.6,0.4,1.6,0.6,2.2c0.2,0.8,0.3,2.2,0.6,2.9L6.6,43.1"/>
<path class="st0" d="M6.7,39.1l0.2,1.2c-0.1,0.5-0.2,1.1-0.3,1.5c-0.2-0.3-0.5-0.8-0.7-1.1l-0.1-1.3L6.1,39c0.1-0.5,0.3-1.2,0.5-1.7  l0.3,0.7L6.7,39.1"/>
<path class="st0" d="M14.1,18.8c-0.1,0.1-0.3,0.2-0.4,0.3l-0.7,0.6c0,0.1,0.1,0.1,0.1,0.2l-0.5,0.5c0.2,0.2,0.5,0.4,1,0.5l-0.3,0.5"/>
<rect x="7.2" y="61.3" class="st1" width="0.6" height="5"/>
<polyline class="st1" points="12.6,61.3 12.6,66.3 11.7,66.3 9.7,62 9.7,62 9.7,66.3 9.1,66.3 9.1,61.3 10,61.3 12,65.6 12,65.6   12,61.3 12.6,61.3 "/>
<g>
	<g>
		<defs>
			<rect id="SVGID_1_" x="3.1" y="1.6" width="178.3" height="105.1"/>
		</defs>
		<clipPath id="SVGID_2_">
			<use xlink:href="#SVGID_1_" style="overflow:visible;"/>
		</clipPath>
		<rect x="3.1" y="1.6" class="st2" width="178.3" height="105.1"/>
	</g>
	<rect x="7.2" y="5.2" class="st3" width="170.1" height="69.8"/>
	<g>
		<path class="st0" d="M49.3,11c-3.7,0-3.7,0-7.8,1.1c0,0,0.9,0.2,1.7,0.2c0.8,0,1.7-0.4,1.7-0.4s2-0.5,2.7-0.5    c0.7-0.1,2.1,0.3,2.1,0.3L52,12c0,0,1.3,0.4,1.9,0.5c0.6,0.1,2.5-0.1,2.5-0.1C51.6,10.8,49.3,11,49.3,11"/>
		<path class="st0" d="M73,34.2c0,2.1,0,2.4-0.3,4.1c-0.4,2.5-0.4,2.7-0.9,4.5c-0.8,1.8-0.9,2.1-2,3.8c-1.2,2.1-1.3,2.2-2.2,3.5    c-0.3,0.1-1.1,0.5-1.5,0.6c1-2.3,1.9-4,2.1-7.1c0.2,0,0.4-0.1,0.7-0.1c0.1-2.2,0.1-3.3-0.4-6.3c-1.1,0.2-2.5,0.4-4,0.6    c-1.4-1.7-1.4-1.7-2.4-2.7c-0.1-1.1-0.2-2.1-0.4-3.2c0.7-1.3,1.5-2.7,2.1-4.4c1.3-0.2,2.5-0.4,3.5-0.6c0.4,0.5,0.9,1.1,1.2,1.6    c0.7-0.2,1.3-0.4,1.8-0.6c1.3,2.4,1.6,3.1,2.2,5.7c0.3,0.3,0.4,0.3,0.4,0.5L73,34.2"/>
		<path class="st0" d="M67.6,20.5l1.1,1.5l1,1.6l0.3,0.6l0.8,1.7l0.3,0.7l-0.2-0.3l0.2,0.7c0.2,0.6,0.6,1.4,0.8,2l0-0.1l0.4,1.9    l0.1,0.5c0.1,0.5,0.1,1.1,0.1,1.6c-0.1-0.6-0.3-1.3-0.5-1.9c-0.6-1.6-0.7-1.9-1.6-3.4c-0.3-0.6-0.6-1.3-0.9-1.9    c-0.2,0.1-0.4,0.2-0.6,0.3c-0.1-0.5-0.3-1.2-0.4-1.8c0.3-0.1,0.5-0.2,0.6-0.4c-0.3-0.4-0.7-0.9-1.1-1.3c-0.1,0.2-0.3,0.4-0.4,0.6    c0.2,0.7,0.4,1.6,0.5,2.4c-0.2,0.2-0.6,0.4-0.8,0.5c-0.6-0.6-1.4-1.3-2-1.8c-0.2,0.5-0.6,1.2-0.9,1.6l0,0.8    c-0.5-0.1-1.2-0.2-1.8-0.3c-0.2-0.6-0.4-1.5-0.6-2.1c0.5,0.1,1.1,0.2,1.6,0.3l-0.3-0.9l-0.8-0.4c-0.3-0.6-0.8-1.3-1.2-1.9l0.4-0.5    c0.4,0.4,0.9,1,1.3,1.4c0.2-0.2,0.6-0.6,0.8-0.8l-0.5-0.9c-0.5-0.3-1.2-0.6-1.7-0.9c-0.2-1.1-0.4-1.9-1.2-3.1c1,0.4,2,0.7,3,1.2    c-0.1-0.3-0.3-0.6-0.5-0.9c0-0.1,0-0.2,0-0.3c0.2-0.1,0.2-0.2,0.1-0.3l1.3,1.1c0,0,0,0,0,0c0,0,0-0.1-0.1-0.1    c-0.8-0.6-1.9-1.5-2.7-2l0,0l1.5,1l1.4,1.2l1.3,1.3l1.2,1.4L67.6,20.5"/>
		<path class="st0" d="M36.5,52.9c0,0.3-0.1,0.7-0.1,1c-0.3,0.2-0.6,0.4-0.8,0.6l-0.7-0.7c0.4-0.7,0.5-0.7,1.2-1.4    c-0.2-0.5-0.4-1.1-0.5-1.5l1,0C36.5,51.4,36.5,52.2,36.5,52.9"/>
		<path class="st0" d="M32.5,21.4c0.1,0.3,0.2,0.6,0.4,0.9c-0.4,0.5-1,1.2-1.3,1.7c0-0.5-0.1-1.1-0.1-1.6c0.4-0.8,1-1.8,1.5-2.5    l-0.5,0c-0.6,0.8-1.4,1.8-2,2.6c0.2-0.6,0.4-1.3,0.6-1.9L31,20.2c-0.5,0.7-1.2,1.6-1.7,2.2c0.2,0,0.5,0,0.7,0    c-0.2,0.7-0.4,1.5-0.5,2.2c-0.3,0.2-0.7,0.5-1.1,0.7c0,0.6-0.1,1.4-0.1,2l-0.8,1c0-0.8,0.1-1.9,0.3-2.7l-0.8,0.8    c-0.2,1.8-0.2,1.9-0.1,3.1c-0.2,0.7-0.5,1.6-0.7,2.3c-0.4-0.2-0.8-0.3-1-0.5c-0.1,1.2-0.2,2.7-0.3,3.8c-0.1-0.2-0.3-0.4-0.5-0.6    c0-1.5,0-3.1,0.5-5.2L25,29l0.6-1.8l0.7-1.8l0.9-1.7l1-1.6l1.1-1.5l1.2-1.4l1.3-1.3l1.4-1.2l1.3-1c-0.1,0.1-0.3,0.2-0.4,0.3    l-0.8,0.6c0,0.1,0.1,0.1,0.1,0.2l-0.5,0.6c0.2,0.2,0.6,0.4,1.2,0.6l-0.3,0.6c0.4-0.1,0.8-0.3,1.2-0.4c-0.2,1.2-0.3,1.3-0.2,2.3    C34,20.8,33.1,21.2,32.5,21.4"/>
		<path class="st0" d="M35,18.3c-0.2,1.2-0.3,1.3-0.2,2.3c-0.6,0.3-1.5,0.6-2.1,0.9"/>
		<path class="st0" d="M59.6,43.7C59.7,43.7,59.7,43.7,59.6,43.7C59.7,43.7,59.6,43.7,59.6,43.7"/>
		<path class="st0" d="M59.6,43.7C59.7,43.7,59.7,43.7,59.6,43.7C59.7,43.7,59.6,43.7,59.6,43.7"/>
		<path class="st0" d="M60.2,42.7C60.2,42.8,60.2,42.7,60.2,42.7"/>
		<path class="st0" d="M60.2,42.7C60.2,42.8,60.2,42.7,60.2,42.7"/>
		<path class="st0" d="M60,43.3C60,43.3,60,43.3,60,43.3L60,43.3"/>
		<path class="st0" d="M60,43.3C60,43.3,60,43.3,60,43.3L60,43.3"/>
		<path class="st0" d="M38.1,23C38.1,22.9,38.1,22.9,38.1,23L38.1,23"/>
		<path class="st0" d="M38.1,23C38.1,22.9,38.1,22.9,38.1,23L38.1,23"/>
		<path class="st0" d="M39.5,22.7C39.5,22.7,39.5,22.7,39.5,22.7"/>
		<path class="st0" d="M39.5,22.7C39.5,22.7,39.5,22.7,39.5,22.7"/>
		<path class="st0" d="M40.1,27.4C40.1,27.4,40.2,27.4,40.1,27.4"/>
		<path class="st0" d="M40.1,27.4C40.1,27.4,40.2,27.4,40.1,27.4"/>
		<path class="st0" d="M50.2,45.6c1.3,1.1,0.3,2.2,0.7,4.1c0.3,1.6,0.5,3.1,1.1,4.5c0.6,1.2-0.1,1.5,1.8,2.5    c-0.5,0.2-0.5,0.4-0.7,0.4c0,0.1,0.1-0.1,0.2-0.2c0,0-0.1,0-0.1,0c-0.2,0.1-0.2,0.3-0.1,0.3c0,0-0.2-0.1-0.3-0.1    c0.5-0.3,0,0,0-0.2c0-0.1,0-0.2-0.2-0.2c0.1,0.3,0,0,0,0.1c-0.1-0.1-0.3-0.2-0.1-0.1c0,0-0.1-0.1-0.1-0.1c-0.1,0-0.1-0.1-0.1-0.2    c0,0.1-0.1,0.1-0.2,0c0,0,0,0,0.1,0c0,0-0.4-0.2,0-0.1C52,56,51.9,55.9,52,55.9c-0.1-0.1,0,0,0.1,0c-0.1,0-0.2-0.1-0.1-0.1    c-0.1,0-0.1-0.1,0-0.1c-0.2,0-0.2-0.1-0.2-0.2c-0.1-0.1-0.3-0.1-0.1,0c0.2,0,0.2,0,0.2-0.1c-0.1,0-0.2-0.1-0.2-0.1    c0,0-0.4,0.1-0.1,0.1c-0.1-0.1-0.4-0.5-0.4-0.4c0-0.2,0.1-0.2,0.1,0c0.7-0.8-0.5-0.9-0.7-2.5c-0.2-1.3-0.1-3.5-0.3-5.1    C50.4,46.6,50.3,46.1,50.2,45.6"/>
		<path class="st0" d="M38.5,20.1c1.1-1.6,3.1-2.8,4.9-2.7c-0.1,0,0,0,0.1,0c0.1,0,0.3-0.1,0.5-0.1l0,0c0.5,0-0.2,0.1-0.4,0.2    c0,0,0,0,0.1,0c0,0,0,0-0.1,0c0.1,0,0,0-0.1,0c0.2-0.1,0.5-0.2,0.7-0.2c0.2-0.1,0.4-0.1,0.5,0.1c0.1-0.1,0.1-0.1,0.2-0.1    c-0.1-0.1,0-0.1,0.1-0.1c-0.2,0-0.1,0,0.1,0c-0.3-0.1,1.1,0.3,1.7,0.4c0,0,0,0,0,0c-0.8,0.5,0.3,0.2,0.7,0.2    c0.1,0.3,0.2,0.5,0.5,0c0.9-0.2,0.3-0.1-0.1-0.1c1,0.1,2.3,0.1,2.7,0c-0.3,0.2-0.3,0.3-0.3,0.3c0.1,0-0.1,0.1-0.1,0.2    c0.2-0.2,0.5-0.4,1-0.6c0,0,0-0.1,0-0.1c-0.3,0,0-0.1,0.2-0.1c-0.1,0.1-0.1,0.1,0,0c-0.3,0-0.6-0.1-0.2-0.4    c-0.1-0.1,0.1-0.2,0.3-0.2c-0.1-0.1,0.1-0.1,0.3-0.1c0.1,0,0.2,0.2,0,0.5c0.2,0-0.1,0.1-0.2,0.1c0,0,0,0,0.1,0c0,0,0,0-0.1,0    c0.1,0,0.4,0,0.2,0c0.3,0,0.1,0.1,0,0.2c0,0-0.1,0.1-0.1,0.1c0.3,0.1,0.8-0.5,0.4,0.3c0.5-0.2,1-0.6,1-0.6c0,0,0.1-0.1,0-0.1    c0.2,0,0.4,0,0.6,0.1c-0.1,0-0.1,0-0.2,0c0.2,0,0.4,0.1,0.1,0.2c-0.1,0.3-0.6,0.6-1,0.5c0,0,0,0,0,0c0,0-0.1,0-0.1,0    c-0.3,0,0,0.1,0,0c-0.1,0.1-0.7,0.3-1.1,0.3c-0.1,0-0.2-0.1-0.3-0.1c0,0-0.1,0-0.1,0c0.2,0.1,0.6,0.3-0.3,0.5    c-0.2,0.2-0.5,0.2-0.9,0c0,0,0.1,0.2,0.1,0.2c0,0.1-0.6,0.6-1.6,1.3c0.1,0,0.1,0,0,0.1c0.1,0,0.1,0.1,0,0.2    c0.5-0.2,0.4,0.1,0.1,0.4c0.1,0,0.3-0.1,0.1,0c0.9,0.2,1.4,0.3,1.9,0.6c-0.2,0.6-0.2,1.1,0.1,1.4c0-0.3,0.2-0.3,0.3-0.2    c0.5-0.7,1.5-2.3,1.9-2.9c0.4-0.5,0.9-0.6,1.4-0.3c0.1,0,0.2,0,0.1,0.1c0.5,0.2,0.4,0.5,0,0.9c0.4,0,0.5,0,0,0.3    c0.2-0.1,0.6-0.3,0.4-0.1c0.1-0.1,0.2-0.1,0.1,0.1c0.6-0.3,0.7-0.3,0.9-0.6c0-0.1,0.1-0.2,0.1-0.1c0,0,0.1,0.2,0.1,0.3    c-0.1,0,0,0.1,0,0.1c0.1,0,0.1,0.1-0.1,0.1c0.1,0,0,0,0,0c0,0,0.1-0.1,0.1,0c0.1,0,0.2,0,0.1,0c-0.1,0.1,0,0.1,0,0.1    c0.1,0,0.2,0.1,0,0.1c0.2,0.1,0.2,0.1,0,0.2c0,0-0.1,0.1,0,0c-0.1,0.1-0.1,0.1,0.1,0.2c0.1,0,0.1,0.1,0.1,0.2c0.1,0,0,0-0.1,0.1    c0,0,0,0,0.1,0c-0.2,0.1,0.1,0.1,0,0.1c0.2,0,0.2,0,0.2,0c0.1,0,0.1,0,0.1,0c0.2,0,0.4,0,0.3,0.1C56,22,56.6,21.8,56,22.1    c0,0-0.2,0-0.1-0.1c0.1,0,0.1,0.1,0.1,0.1c0.1,0,0,0,0,0c0.9-0.4,0.6-0.1,1.1-0.1c0,0.2,0,0.3-0.2,0.3c0.1,0,0.3,0.1,0.1,0    c-0.3,0.3-1,0.6-1.7,0.7c0,0,0,0,0.1,0c-1,0-1.9,0.2-2.6,0.6c-0.3,0.7,0.9,0.1,1.7-0.1c0.1,0.3-1.1,0.5,0.3,0.9    c0,0,0.1,0.1,0.1,0.1c-0.1,0.1,0,0,0,0.1c-0.8,0.4-1.5,0.3-1.5,0.3c0.1-0.1,0.1-0.1,0.2-0.1c0.5-0.1,0.5-0.2,0.4-0.4    c-0.1,0-0.1,0-0.1-0.1c-0.4-0.2-0.9,0.8-0.8-0.4c-0.1,0.1-0.2,0.1-0.2,0c-0.8,0.8-1.6,0.7-2.6,1.1c0.1,0-0.7,0.4-0.9,0.5    c-1.5,0.2-0.2-0.5,0-0.7c0.4,0,0.4-0.1,0-0.4c0,0,0,0,0,0c-1.4-1.2-3.3-0.9-7.5-0.9c0.4,0-3.1-0.2-2.4-0.1c-0.1,0-0.1,0,0-0.1    c-0.2,0.1-0.3,0.1-0.1,0c0,0-0.3,0,0-0.2c-0.2-0.1,0-0.1-0.2-0.1c-0.1,0-0.3,0.1-0.1,0c0.2-0.1,0-0.1,0-0.1c-0.1,0-0.1,0-0.2,0    c-0.1,0,0,0,0.2-0.1c-0.2,0-0.4,0-0.1-0.1c-0.3-0.1,0.1-0.1,0.2-0.1c-0.1,0-0.2,0.1-0.2,0c-0.3,0.1-0.1,0,0-0.1    c0.4-0.1,0.2-0.1,0-0.1c-0.1,0.1-0.1,0,0,0c-0.3,0.1-0.1,0,0-0.1c0-0.1,0-0.2,0.2-0.3c-0.1,0-0.4,0.2-0.3,0c0-0.1,0.1-0.1,0.1-0.1    c-0.3,0-0.1-0.1,0-0.1c0.1-0.1,0.1-0.2,0.3-0.3c0,0,0,0,0-0.1c-0.3,0.3-0.2,0.1,0-0.1l0,0c0-0.2-0.2-0.8-0.1-1.2    C38.5,20.6,38.9,20.1,38.5,20.1"/>
		<path class="st0" d="M46.7,41.1c0.3-0.3,1-0.1,1.6-1.4c0,0,0.1,0,0.1,0c0.7,0.6,0.7,0.6,1.5,0.9c-0.2,0.3-0.1,0.3,0,0.5    c-1.2,1.1,1.4,4.5,1.1,4.6c0.1-0.1-0.5,0.9-0.5,1c0,0-0.4-1-0.4-1c-1.6-1.1-2.8-2.6-3.4-4.3C46.7,41.3,46.7,41.2,46.7,41.1"/>
		<path class="st0" d="M54.4,38.9c0-0.7,0-1.3,0.7-0.8c0.1,0,0.1,0,0.1,0.1C55.3,38.5,55,38.8,54.4,38.9"/>
		<path class="st0" d="M38.1,28.9c1.8,0,4.3,0.6,4.8,2.2c0,0.1-0.4,1.8-0.3,1.3c0.1,0.4,0.2,0.8,0.4,1.1c-0.1-0.1,0.5,0.2,0.5,0.2    c0.1,0,0.3-0.1,0.3,0c0.2,0,0.3,0,0.4-0.2c0,0,0.3-0.4,0.4-0.7c0.1-0.1,0.5-0.2,0.8-0.2c0,0,0,0,0,0c0,0,0.1,0,0.1,0    c-0.3,0.8-1.1,1.7-1.8,2.1c-1.1,0-2.6-1-3.3-2.3c-0.1-0.2-0.4-0.6-0.4-0.8c0,0,0-0.2-0.2-0.3c0-0.1-0.1-0.1-0.2-0.1    c-0.1-0.5-0.5-1.5-0.9-2.1c0.1,1.1,0.2,1.7,0.6,2.6l0,0c0.3,0.6,0,0.2-0.4-0.3c0,0,0,0,0,0.1c-0.2-0.5,0-0.8-0.5-1    c0.6,0.1,0.1-0.3,0-0.9C38.1,29.5,38.1,29.2,38.1,28.9"/>
		<path class="st0" d="M44.1,33.5C44.2,33.5,44.2,33.4,44.1,33.5"/>
		<path class="st0" d="M44.1,33.5C44.2,33.5,44.2,33.4,44.1,33.5"/>
		<path class="st0" d="M42.9,33.5C42.9,33.5,42.9,33.5,42.9,33.5C42.9,33.5,42.9,33.6,42.9,33.5"/>
		<path class="st0" d="M42.9,33.5C42.9,33.5,42.9,33.5,42.9,33.5C42.9,33.5,42.9,33.6,42.9,33.5"/>
		<path class="st0" d="M42.9,33.5C42.9,33.5,42.9,33.5,42.9,33.5"/>
		<path class="st0" d="M42.9,33.5C42.9,33.5,42.9,33.5,42.9,33.5"/>
		<path class="st0" d="M46.3,36.9c0.8-0.3,1.4-0.2,1.5,0C47.1,37,47,37,46.3,36.9"/>
		<path class="st0" d="M46.3,36.9c0.8-0.3,1.4-0.2,1.5,0C47.1,37,47,37,46.3,36.9"/>
		<path class="st0" d="M49.7,42.4c0.9-0.2,0.1-6.2,4.1,3c0.1,0.3,0,0.6,0.1,0.8c0,0-0.1,0.1-0.1,0.1c-1.3,0.9-2.5,1.2-3.2-0.7    c-0.2-0.4-1-2.3-1-2.9"/>
		<path class="st0" d="M44.7,34.4c0.2-0.7,0.4-1.2,0.3-0.2C45,34.2,44.8,34.4,44.7,34.4"/>
		<path class="st0" d="M44.7,34.4c0.2-0.7,0.4-1.2,0.3-0.2C45,34.2,44.8,34.4,44.7,34.4"/>
		<path class="st0" d="M48.9,42.1c0.6-1.4,1.5-1.6,1.1-3c1.9-0.3,0.6-0.1,1.5-0.8c0.6,0.2,0.8,0.1,1.2-0.3c0,0,0.1,0,0.1,0    c0,0,0.1,0.1,0.1,0.1c0.4,1.9,1.2,0.9,2.5,0.4c0-0.2,0.1,0,0.1,0.1c-0.1,0.6,0.6,0.8-0.3,1.7c0-0.1,0.3,0.1,0.6,0.2    c0.1,0,0.6-0.3,0.9-0.4c0,0,0,0,0,0.1c0.1,0,0,0,0,0c0.4,0,0.6,0.2,0.6,0.4c0.3-0.1,1.8,0.5,2.9,1.6c0.1,0.2-0.1,0.6-0.3,0.8    c-0.1,0.2-0.4,0.5-0.4,0.5c-0.1,0.3-0.2,0.5-0.4,0.5c0,0.1,0,0.2,0,0.3c0,0,0,0,0,0c0,0,0,0.1,0,0.1c0,0,0,0,0-0.1    c0.1,1.5-0.3,2.7-1.2,3c-0.3,0.1-1.1,0.7-1.2,1c0.1,0.3,0.1,0.6,0.1,0.7c-0.7,1.5-0.5,0.7-0.5,0.8c-0.3,0.2-0.2,0.7-0.5,0.8    c-0.3-0.6-0.9-0.6-1.3-1c0.9-1.7,0.5-2.3-0.5-3.7c-0.6-0.9-1.5-2.3-2.5-3C49.8,43.7,49.9,42.8,48.9,42.1"/>
		<path class="st0" d="M56.4,39.8C56.4,39.9,56.5,39.8,56.4,39.8"/>
		<path class="st0" d="M56.4,39.8C56.4,39.9,56.5,39.8,56.4,39.8"/>
		<path class="st0" d="M56.8,39.9C56.8,39.9,56.8,39.9,56.8,39.9"/>
		<path class="st0" d="M56.8,39.9C56.8,39.9,56.8,39.9,56.8,39.9"/>
		<path class="st0" d="M57.3,40.6C57.4,40.5,57.4,40.5,57.3,40.6"/>
		<path class="st0" d="M57.3,40.6C57.4,40.5,57.4,40.5,57.3,40.6"/>
		<path class="st0" d="M59.1,43.9C59.1,43.9,59.1,43.9,59.1,43.9"/>
		<path class="st0" d="M59.1,43.9C59.1,43.9,59.1,43.9,59.1,43.9"/>
		<path class="st0" d="M49.8,33.7c0.3-0.2-0.1-0.9,0.8-0.4c0,0.1-0.1-0.1,0.2,0.2C50.6,33.5,49.9,33.6,49.8,33.7"/>
		<path class="st0" d="M49.8,33.7c0.3-0.2-0.1-0.9,0.8-0.4c0,0.1-0.1-0.1,0.2,0.2C50.6,33.5,49.9,33.6,49.8,33.7"/>
		<path class="st0" d="M49.1,36.6c0.6-0.5,0.7-1.3,0.4-0.2c0.4,0,0.1-0.3,0.6-0.6c-0.1,0,0.8,0.3,1.4,0.5c0.3-0.1,1-0.4,0.6-0.1    c0,0.1,0.1,0.2,0.3,0.2c-0.1-0.1,0,0,0,0.1c0.2-0.1,0.2,0,0.2,0.2c0.1,0.6,0.4,1.3-1.1,1.6c0,0.9-0.5,1-1.3,1.7    C49.7,38.5,49.9,37.7,49.1,36.6"/>
		<path class="st0" d="M46.2,32.4c0.3-0.3,0.7-0.4,1.1-0.4c0.2,0.1,0.9,0.4,1,0.4c0.3,0.2,0.4,0.3,0.9,0.5c0,0-0.3,0.1-0.3,0.1    C48.1,32.5,47.3,32.6,46.2,32.4"/>
		<path class="st0" d="M46.2,32.4c0.3-0.3,0.7-0.4,1.1-0.4c0.2,0.1,0.9,0.4,1,0.4c0.3,0.2,0.4,0.3,0.9,0.5c0,0-0.3,0.1-0.3,0.1    C48.1,32.5,47.3,32.6,46.2,32.4"/>
		<path class="st0" d="M47.4,32L47.4,32C47.4,32,47.4,32,47.4,32"/>
		<path class="st0" d="M47.4,32L47.4,32C47.4,32,47.4,32,47.4,32"/>
		<path class="st0" d="M47.7,38.8C47.7,38.8,47.7,38.7,47.7,38.8"/>
		<path class="st0" d="M47.7,38.8C47.7,38.8,47.7,38.7,47.7,38.8"/>
		<path class="st0" d="M47.8,38.6C47.8,38.6,47.8,38.6,47.8,38.6"/>
		<path class="st0" d="M47.8,38.6C47.8,38.6,47.8,38.6,47.8,38.6"/>
		<path class="st0" d="M47.8,38.2C47.8,38.2,47.8,38.3,47.8,38.2L47.8,38.2"/>
		<path class="st0" d="M47.8,38.2C47.8,38.2,47.8,38.3,47.8,38.2L47.8,38.2"/>
		<path class="st0" d="M47.9,37.9C47.9,37.9,47.9,37.9,47.9,37.9L47.9,37.9"/>
		<path class="st0" d="M47.9,37.9C47.9,37.9,47.9,37.9,47.9,37.9L47.9,37.9"/>
		<path class="st0" d="M39.2,21.8C39.1,21.8,39.1,21.8,39.2,21.8C39.1,21.8,39.1,21.8,39.2,21.8"/>
		<path class="st0" d="M39.2,21.8C39.1,21.8,39.1,21.8,39.2,21.8C39.1,21.8,39.1,21.8,39.2,21.8"/>
		<path class="st0" d="M39.2,21.7C39.1,21.8,39.1,21.8,39.2,21.7"/>
		<path class="st0" d="M39.2,21.7C39.1,21.8,39.1,21.8,39.2,21.7"/>
		<path class="st0" d="M39.3,24.1C39.2,24,39.3,24.1,39.3,24.1"/>
		<path class="st0" d="M39.3,24.1C39.2,24,39.3,24.1,39.3,24.1"/>
		<path class="st0" d="M31.4,21.7C31.2,21.7,31.1,21.8,31.4,21.7c0.1-0.1,0.5-0.2,0.7-0.3c0,0,0,0,0.1,0c0,0,1.1-0.4,1.4-0.5    c0-0.1,0.1-0.1,0.3-0.2c0-0.1,0.2-0.2,0.4-0.3c-0.5,0.2-0.5,0-0.5,0.1c-0.7,0.2-1,0.1-0.1-0.5c-0.3,0.2-0.7,0.3-0.8,0.1    c0-0.1,0.1-0.2,0.1-0.1c0.5-0.1,0.1-0.2,0.1-0.2c-0.1,0,0,0,0,0c-0.3-0.1,0.2-0.2,0.5-0.3c0.2-0.1,0.4-0.2,0.4-0.2    c0.5,0,0.9-0.2,1.1-0.4c0.1,0,0.3-0.1,0.3-0.2c-0.1,0-0.2,0-0.3,0.1l0,0c-0.5,0.1-0.8,0.1-0.9-0.2c0.2,0.1,0-0.1,0-0.1    c0.1,0,0.8-0.2,1.2-0.2c-0.1,0-0.2,0.1-0.2,0.1c0,0,0.3,0.1,0.2,0.1c0.1,0,0.2,0,0.2,0c0.1,0,0.3-0.1,0.1-0.1    c0.5,0,0.4-0.2-0.2-0.6c0.4-0.1,0.8-0.2,1.2-0.3c0,0,0,0-0.1,0c0.2-0.1,0.6-0.2,0.7-0.2c0.2,0,0.4-0.1,0.6-0.1c0,0-0.1,0-0.1,0    c0,0,0,0,0,0c0,0,0,0-0.1,0c0,0,0.1,0,0.2,0c-0.1,0-0.1,0-0.1,0c0.1,0,0.2-0.1,0.3-0.1c0.1,0,0.5-0.1,0.8-0.1    c0.1,0.1,0,0.1-0.2,0.2c0.1,0,0.3-0.1,0.3-0.1c0,0,0.5,0.2,0.4,0.1c0,0-0.1,0-0.1,0c0.5,0,1.3,0.1,1.9,0.2c0,0,0.2,0.1,0.2,0.1    c-1.2,0.8-2.1,2-3.3,2.7c0.2,0,0.7,0,0.4,0.4c0.3,0,0.5-0.3,0.7-0.2c0,0,0,0,0,0c0.1,0.4-0.3,1.7-0.4,1.4    c-0.2,0.1,0.1-0.1,0.2-0.1c-0.2,0.1-0.2,0.1,0,0c0,0,0-0.2,0.1-0.3c-0.1,0-0.1,0-0.2,0.1c-0.1,0-0.4,0.1,0.1-0.1    c-0.2,0-0.1-0.1,0-0.2c-0.1,0-0.2-0.1,0-0.2c-0.1,0-0.1,0,0-0.1c0,0,0-0.1,0.1-0.1c-0.1,0-0.2,0-0.1-0.1c0,0-0.1,0,0-0.4    c-0.3,0.4-0.5,0.4-0.6,0.2c0.1,0,0.1,0,0.1,0c0,0,0,0-0.1,0c0.1,0.1,0,0.1-0.1,0.1c-0.1,0-0.2-0.1-0.2-0.2    c-0.2-0.2-0.1-0.1-0.1-0.1c0-0.1,0.1-0.1,0.1-0.1c-0.7,0-1.2-0.2-1.3-0.3c-0.1,0-0.2,0-0.1,0c-0.2,0-0.1,0,0,0    c0,0-0.2-0.1-0.2-0.1c-0.2,0.1-0.2,0.1,0,0c-0.3,0.1-0.1,0-0.4,0.1c0,0,0.1,0-0.1,0.1c0.3,0,0,0.1,0,0.1c-0.1,0.1-0.2,0.1-0.3,0    c0,0-0.1,0-0.1,0c0.1-0.1-0.1,0-0.1,0c0,0,0,0,0,0c-0.1,0-0.2,0.1-0.3,0.1c0,0,0.1,0,0.1-0.1c-0.7,0.5-0.2-0.1,0.7-0.4    c0-0.1-0.2,0,0-0.2c0,0-0.8,0.2-1.2,0.3c0,0.1-0.2,0.2-0.3,0.2c0,0-0.2,0.1-0.3,0.1c0,0.1-0.1,0.2-0.5,0.3c0,0-0.6,0.2-0.9,0.3    c-0.2,0.1-0.6,0.2-0.9,0.3C32.6,21.4,31.8,21.6,31.4,21.7"/>
		<path class="st0" d="M37.3,27c-0.1-0.3,0-0.6,0.2-0.8c0.1-0.2,0.3-0.6,0.4-0.8c0.1-0.2,0.6-0.7,0.9-0.9c-0.1,0-0.2,0-0.1-0.1    c0,0.1,0.1,0,0.1,0c0,0,0-0.1,0-0.1c0.2-0.5,0.4-0.5,0.5-0.2c0,0-0.2,0-0.1,0.1c0.2-0.1,0.1,0-0.1,0.1c0,0,0,0,0,0c0,0,0,0,0,0    c1.9-1.6,6.6-0.9,8.7-0.3c-0.3,0.1-0.6,0.2-0.9,0.4c0.2,0,1-0.1,1,0c0,0.4,1-0.4,0.9,0.3c0,0,0,0-0.1,0c-0.9,0.6-0.4,0.4-1.3,1.4    c0.3-0.3,1.1-1.1,0.9-1c0-0.2,0.9,0,0.1,1c0,0,0.1,0,0.1,0.1c0.1,0,0,0,0,0c0.9-0.2,1.5-0.5,2.2-0.8c0.6-0.3,1.5-0.5,2.3-1.1    c0,0.1,0.1,0.1,0.2,0l0.1,0.1c0,0.9-0.4,0.6-0.6,0.8c-0.1,0.2-0.3,0.2-0.3,0.2c0.1-0.1-0.1,0-0.1,0l0,0c-0.2,0.6-0.3,0.8-0.9,0.8    c-0.4,0-0.6,0.1-0.6,0.5c-0.3,0-0.5,0-0.4,0.5c-0.6,0.5-0.3-0.1-0.1-0.4c-0.1,0.1-0.3,0.3-0.3,0.3c-0.1,0.1-0.1,0.1-0.1,0.2    c0.1,0.2,0.2,0.3,0,0.2c0,0,0,0.1,0.2,0.5c0-0.1,0-0.2-0.1-0.2c0,0.2-0.1,0.2-0.2,0.1c0.2,0.2,0.3,0.3-0.2,0.3    c0.2,0.1,0,0.3-0.4,0.5c0,0,0,0,0-0.1c-0.1,0-0.4,0.3-0.4,0.2c-0.2,0.2-0.4,0.3-0.5,0.3c0,0.1,0,0.1,0,0.1    c-0.1,0.2-0.2,0.2-0.3,0.3c-0.1,0.3-0.1,0.8,0,1.1c0-0.1,0-0.2-0.1-0.3c0,0.9,0,1.5-0.4,0.7c0,0-0.3-0.5-0.2-0.3    c-0.1-0.8-0.5-1-1-0.9c0.1-0.1-0.1,0-0.2,0c0,0,0-0.1,0-0.2c-0.6,0.1-0.7,0.3-0.5,0.6c-0.6-0.4-1.3-0.4-1.8,0.1c0,0-0.1,0-0.1,0.1    c-0.1,0-0.3,0.1-0.5,0.3c0.1,0.1-3.1-0.9-4.2-1.7c-0.9-0.7-1.5-1-1.4-1.7C37.3,27.1,37.4,27.1,37.3,27"/>
		<path class="st0" d="M39.1,24.1C39.1,24.1,39.1,24.2,39.1,24.1"/>
		<path class="st0" d="M39.1,24.1C39.1,24.1,39.1,24.2,39.1,24.1"/>
		<path class="st0" d="M39.2,21.4C39.2,21.4,39.2,21.4,39.2,21.4"/>
		<path class="st0" d="M39.2,21.4C39.2,21.4,39.2,21.4,39.2,21.4"/>
		<path class="st0" d="M39.2,20.7C39.2,20.7,39.2,20.7,39.2,20.7"/>
		<path class="st0" d="M39.2,20.7C39.2,20.7,39.2,20.7,39.2,20.7"/>
		<path class="st0" d="M39.4,23.8C39.4,23.8,39.4,23.8,39.4,23.8"/>
		<path class="st0" d="M39.4,23.8C39.4,23.8,39.4,23.8,39.4,23.8"/>
		<path class="st0" d="M43.3,30.4c0,0,0.1,0,0.1-0.1C43.4,30.3,43.3,30.3,43.3,30.4"/>
		<path class="st0" d="M43.3,30.4c0,0,0.1,0,0.1-0.1C43.4,30.3,43.3,30.3,43.3,30.4"/>
		<path class="st0" d="M43.9,30C43.9,30,43.9,30,43.9,30C43.9,30,43.9,30,43.9,30C43.9,30,43.9,30,43.9,30"/>
		<path class="st0" d="M43.9,30C43.9,30,43.9,30,43.9,30C43.9,30,43.9,30,43.9,30C43.9,30,43.9,30,43.9,30"/>
		<path class="st0" d="M44.8,29.9C44.7,29.9,44.7,29.9,44.8,29.9"/>
		<path class="st0" d="M44.8,29.9C44.7,29.9,44.7,29.9,44.8,29.9"/>
		<path class="st0" d="M44.9,30C44.9,30,44.9,30,44.9,30"/>
		<path class="st0" d="M44.9,30C44.9,30,44.9,30,44.9,30"/>
		<path class="st0" d="M45.5,29.7C45.5,29.8,45.5,29.8,45.5,29.7"/>
		<path class="st0" d="M45.5,29.7C45.5,29.8,45.5,29.8,45.5,29.7"/>
		<path class="st0" d="M46.6,29.9C46.6,29.9,46.6,29.8,46.6,29.9C46.6,29.8,46.6,29.9,46.6,29.9"/>
		<path class="st0" d="M46.6,29.9C46.6,29.9,46.6,29.8,46.6,29.9C46.6,29.8,46.6,29.9,46.6,29.9"/>
		<path class="st0" d="M46.7,29.9c0,0,0.1,0,0.1,0C46.7,29.9,46.7,29.9,46.7,29.9"/>
		<path class="st0" d="M46.7,29.9c0,0,0.1,0,0.1,0C46.7,29.9,46.7,29.9,46.7,29.9"/>
		<path class="st0" d="M47.2,30.8L47.2,30.8C47.2,30.8,47.2,30.8,47.2,30.8"/>
		<path class="st0" d="M47.2,30.8L47.2,30.8C47.2,30.8,47.2,30.8,47.2,30.8"/>
		<path class="st0" d="M47.2,30.9C47.3,31,47.2,30.9,47.2,30.9"/>
		<path class="st0" d="M47.2,30.9C47.3,31,47.2,30.9,47.2,30.9"/>
		<path class="st0" d="M47.3,30.9C47.3,30.9,47.3,30.9,47.3,30.9C47.3,30.9,47.3,30.9,47.3,30.9"/>
		<path class="st0" d="M47.3,30.9C47.3,30.9,47.3,30.9,47.3,30.9C47.3,30.9,47.3,30.9,47.3,30.9"/>
		<path class="st0" d="M47.3,30.9C47.3,30.9,47.3,30.9,47.3,30.9"/>
		<path class="st0" d="M47.3,30.9C47.3,30.9,47.3,30.9,47.3,30.9"/>
		<path class="st0" d="M47.3,30.9C47.3,30.9,47.3,30.9,47.3,30.9C47.4,30.9,47.3,30.9,47.3,30.9"/>
		<path class="st0" d="M47.3,30.9C47.3,30.9,47.3,30.9,47.3,30.9C47.4,30.9,47.3,30.9,47.3,30.9"/>
		<path class="st0" d="M47.4,39.1c0.1-1,0.6-2.8,1.5-3.1c0.2-0.1,0.5-0.3,0.7-0.4c0-0.1,0.1,0,0.2,0c-0.1,1.6,0.1,2.1,1.1,3.6    c0,0-0.1,0-0.1,0c0.1-0.4-0.6-0.3-0.8-0.2c0,0.2,0.3,1.2,0,2c0,0-0.1-0.2-0.2-0.1C49.4,40.3,48.3,39.9,47.4,39.1"/>
		<path class="st0" d="M47.6,38.8C47.6,38.7,47.6,38.8,47.6,38.8"/>
		<path class="st0" d="M47.6,38.8C47.6,38.7,47.6,38.8,47.6,38.8"/>
		<path class="st0" d="M47.6,38.8C47.6,38.8,47.6,38.8,47.6,38.8"/>
		<path class="st0" d="M47.6,38.8C47.6,38.8,47.6,38.8,47.6,38.8"/>
		<path class="st0" d="M47.7,31.3c0,0-0.1,0.1-0.1,0.1C47.6,31.4,47.7,31.3,47.7,31.3"/>
		<path class="st0" d="M47.7,31.3c0,0-0.1,0.1-0.1,0.1C47.6,31.4,47.7,31.3,47.7,31.3"/>
		<path class="st0" d="M47.8,29.5C47.8,29.5,47.8,29.5,47.8,29.5C47.8,29.5,47.8,29.5,47.8,29.5"/>
		<path class="st0" d="M47.8,29.5C47.8,29.5,47.8,29.5,47.8,29.5C47.8,29.5,47.8,29.5,47.8,29.5"/>
		<path class="st0" d="M47.8,30.3L47.8,30.3C47.8,30.3,47.8,30.2,47.8,30.3"/>
		<path class="st0" d="M47.8,30.3L47.8,30.3C47.8,30.3,47.8,30.2,47.8,30.3"/>
		<path class="st0" d="M47.8,30.5c0,0.1,0,0.1,0,0.2C47.8,30.6,47.8,30.5,47.8,30.5"/>
		<path class="st0" d="M47.8,30.5c0,0.1,0,0.1,0,0.2C47.8,30.6,47.8,30.5,47.8,30.5"/>
		<path class="st0" d="M47.8,38.2C47.9,38.3,47.9,38.2,47.8,38.2"/>
		<path class="st0" d="M50.8,26.3C50.7,26.3,50.7,26.3,50.8,26.3"/>
		<path class="st0" d="M50.8,26.3C50.7,26.3,50.7,26.3,50.8,26.3"/>
		<path class="st0" d="M51.6,26C51.6,26,51.6,26,51.6,26"/>
		<path class="st0" d="M51.6,26C51.6,26,51.6,26,51.6,26"/>
		<path class="st0" d="M39.1,21.8C39.1,21.8,39.1,21.8,39.1,21.8L39.1,21.8"/>
		<path class="st0" d="M39.1,21.8C39.1,21.8,39.1,21.8,39.1,21.8L39.1,21.8"/>
		<path class="st0" d="M47.9,24.9C47.8,24.9,48.1,24.7,47.9,24.9"/>
		<path class="st0" d="M47.9,24.9C47.8,24.9,48.1,24.7,47.9,24.9"/>
		<path class="st0" d="M48.1,24.1c0-0.1-0.1,0-0.1,0.1C47.9,24.3,48,24.2,48.1,24.1"/>
		<path class="st0" d="M48.1,24.1c0-0.1-0.1,0-0.1,0.1C47.9,24.3,48,24.2,48.1,24.1"/>
		<path class="st0" d="M48.1,24.1c0-0.1-0.1,0-0.1,0.1C47.9,24.3,48,24.2,48.1,24.1"/>
		<path class="st0" d="M48.1,24.1c0-0.1-0.1,0-0.1,0.1C47.9,24.3,48,24.2,48.1,24.1"/>
		<path class="st0" d="M47.9,24.9C47.8,24.9,48.1,24.7,47.9,24.9"/>
		<path class="st0" d="M47.9,24.9C47.8,24.9,48.1,24.7,47.9,24.9"/>
		<path class="st0" d="M50.7,49.2c-0.5-5.7,1.5-4.4,3.2-1.4c0.3,0.5-0.1,0.5,0,0.8c-0.1,0.1,1.6-0.6,1-0.6c0,0,0.1,0,0.1,0    c0,0,0,0,0.1,0c0,0,0.2,0.4,0.1,0.4c-0.3,1.5-0.9,3-1.1,4c0,0.1-0.4-0.1-0.4-0.1c-0.3,0.6,0.6,0.4-0.5,0.7c0,0,0,0-0.1,0    c0.1,0.4,0.4,0.7,0.6,0.5c0,0,0,0.1,0,0.1c0,0,0,0,0,0.1c-0.6,0.4-0.3,0.9-0.1,1.6c0,0.2-0.1,0.5-0.4,0.6c0,0.3,0.1,0.5,0.5,0.8    c-1.9-1.1-1.8-1.8-2.3-3.5c-0.4-1.2-0.6-2.6-0.7-3.9"/>
		<path class="st0" d="M43.8,34.8c0.8-0.4,0.1-0.8,1-1.1c0.1,0.5,0.1,0.5,0.2,0.7C44.5,35.3,44.2,34.6,43.8,34.8"/>
		<path class="st0" d="M43.8,34.8c0.8-0.4,0.1-0.8,1-1.1c0.1,0.5,0.1,0.5,0.2,0.7C44.5,35.3,44.2,34.6,43.8,34.8"/>
		<path class="st0" d="M53.5,38.4c0.4-0.2,0.1-1.1,1.1-0.7C54.5,39.5,54,38.3,53.5,38.4"/>
		<path class="st0" d="M46.5,36.9C46.5,36.9,46.5,36.9,46.5,36.9"/>
		<path class="st0" d="M46.5,36.9C46.5,36.9,46.5,36.9,46.5,36.9"/>
		<path class="st0" d="M47.1,40.4C47.1,40.4,47.1,40.4,47.1,40.4L47.1,40.4"/>
		<path class="st0" d="M47.1,40.4C47.1,40.4,47.1,40.4,47.1,40.4L47.1,40.4"/>
		<path class="st0" d="M39.1,22.4C39.1,22.4,39,22.4,39.1,22.4C39.1,22.4,39.1,22.4,39.1,22.4"/>
		<path class="st0" d="M39.1,22.4C39.1,22.4,39,22.4,39.1,22.4C39.1,22.4,39.1,22.4,39.1,22.4"/>
		<path class="st0" d="M43.6,17.4C43.6,17.5,43.6,17.5,43.6,17.4L43.6,17.4"/>
		<path class="st0" d="M43.6,17.4C43.6,17.5,43.6,17.5,43.6,17.4L43.6,17.4"/>
		<path class="st0" d="M43.7,17.4C43.7,17.4,43.7,17.4,43.7,17.4L43.7,17.4"/>
		<path class="st0" d="M43.7,17.4C43.7,17.4,43.7,17.4,43.7,17.4L43.7,17.4"/>
		<path class="st0" d="M53.7,17.6C53.7,17.6,53.4,17.7,53.7,17.6"/>
		<path class="st0" d="M53.7,17.6C53.7,17.6,53.4,17.7,53.7,17.6"/>
		<path class="st0" d="M49.7,19.6C49.8,19.6,49.7,19.6,49.7,19.6"/>
		<path class="st0" d="M49.7,19.6C49.8,19.6,49.7,19.6,49.7,19.6"/>
		<path class="st0" d="M50,19.5C50,19.4,50,19.4,50,19.5L50,19.5"/>
		<path class="st0" d="M50,19.5C50,19.4,50,19.4,50,19.5L50,19.5"/>
		<path class="st0" d="M50.5,18.1C50.5,18,50.5,18,50.5,18.1L50.5,18.1"/>
		<path class="st0" d="M50.5,18.1C50.5,18,50.5,18,50.5,18.1L50.5,18.1"/>
		<path class="st0" d="M51.7,16.8C51.7,16.8,51.7,16.8,51.7,16.8"/>
		<path class="st0" d="M51.7,16.8C51.7,16.8,51.7,16.8,51.7,16.8"/>
		<path class="st0" d="M52.8,18.2C52.8,18.2,52.8,18.2,52.8,18.2L52.8,18.2"/>
		<path class="st0" d="M52.8,18.2C52.8,18.2,52.8,18.2,52.8,18.2L52.8,18.2"/>
		<path class="st0" d="M46.4,34.9C46.4,35,46.4,35,46.4,34.9"/>
		<path class="st0" d="M46.4,34.9C46.4,35,46.4,35,46.4,34.9"/>
		<path class="st0" d="M45.5,36.2c0.6-0.3,0.9,0,0.8,0.8C46.1,36.7,45.7,36.3,45.5,36.2"/>
		<path class="st0" d="M45.5,36.2c0.6-0.3,0.9,0,0.8,0.8C46.1,36.7,45.7,36.3,45.5,36.2"/>
		<path class="st0" d="M47.2,39.3C47.2,39.3,47.2,39.3,47.2,39.3C47.2,39.3,47.2,39.3,47.2,39.3"/>
		<path class="st0" d="M47.2,39.3C47.2,39.3,47.2,39.3,47.2,39.3C47.2,39.3,47.2,39.3,47.2,39.3"/>
		<path class="st0" d="M52,47.4c1.5-2.3,2.9-2,4.3-0.9c0.1,0.1-1.5,2.8-3.1,2.3c0.1-1,0.2-1.1-0.6-1.8"/>
		<path class="st0" d="M52.8,18.1C52.8,18.2,52.8,18.2,52.8,18.1C52.8,18.2,52.5,18.2,52.8,18.1C52.7,18.1,52.8,18.1,52.8,18.1    C52.8,18.1,52.8,18.1,52.8,18.1"/>
		<path class="st0" d="M52.8,18.1C52.8,18.2,52.8,18.2,52.8,18.1C52.8,18.2,52.5,18.2,52.8,18.1C52.7,18.1,52.8,18.1,52.8,18.1    C52.8,18.1,52.8,18.1,52.8,18.1"/>
		<path class="st0" d="M52.8,18.2C52.8,18.2,52.8,18.2,52.8,18.2"/>
		<path class="st0" d="M52.8,18.2C52.8,18.2,52.8,18.2,52.8,18.2"/>
		<path class="st0" d="M49.2,33.5c0,0,0.1,0,0.1,0c0.6-0.2-0.2-0.3,0.6-0.3c0,0,0,0.1,0,0.1C49.6,33.8,49.3,33.5,49.2,33.5"/>
		<path class="st0" d="M49.2,33.5c0,0,0.1,0,0.1,0c0.6-0.2-0.2-0.3,0.6-0.3c0,0,0,0.1,0,0.1C49.6,33.8,49.3,33.5,49.2,33.5"/>
		<path class="st0" d="M53.1,24.8C53.1,24.8,53.1,24.8,53.1,24.8L53.1,24.8"/>
		<path class="st0" d="M53.1,24.8C53.1,24.8,53.1,24.8,53.1,24.8L53.1,24.8"/>
		<path class="st0" d="M53.3,25.1L53.3,25.1C53.3,25.1,53.3,25.1,53.3,25.1"/>
		<path class="st0" d="M53.3,25.1L53.3,25.1C53.3,25.1,53.3,25.1,53.3,25.1"/>
		<path class="st0" d="M48.9,24.4C48.9,24.3,48.9,24.5,48.9,24.4"/>
		<path class="st0" d="M48.9,24.4C48.9,24.3,48.9,24.5,48.9,24.4"/>
		<path class="st0" d="M44.4,35.1C44.9,35.1,45.3,35.1,44.4,35.1"/>
		<path class="st0" d="M44.4,35.1C44.9,35.1,45.3,35.1,44.4,35.1"/>
		<path class="st0" d="M48.8,36C48.9,36,48.9,36,48.8,36"/>
		<path class="st0" d="M48.8,36C48.9,36,48.9,36,48.8,36"/>
		<path class="st0" d="M51.3,38.2c0.3-0.4,1.5-1,1.6-1.4c0,0.1,0.1,0.1,0.2,0.1c0.2,0.5,2.1,1.8,1.3,2.3c-0.2,0-1-0.2-1.1,0    c0,0-0.1,0-0.1,0c-0.2-0.7-1.3-0.1-1.6-0.6"/>
		<path class="st0" d="M54.3,49.6C55.6,51,55.8,51.2,54.3,49.6"/>
		<path class="st0" d="M54.3,49.6C55.6,51,55.8,51.2,54.3,49.6"/>
		<path class="st0" d="M47.9,33.6c0.3-0.1,0.6-0.1,0.4,0.1C48.3,33.8,48.1,33.8,47.9,33.6"/>
		<path class="st0" d="M47.9,33.6c0.3-0.1,0.6-0.1,0.4,0.1C48.3,33.8,48.1,33.8,47.9,33.6"/>
		<path class="st0" d="M44.6,34.9c0.6-0.5,1.2-0.6,1.5-0.4c0.1,0.1,0.1,0.1,0.2,0.1c0,0,0,0,0-0.1C45.8,35.2,45.2,35.4,44.6,34.9"/>
		<path class="st0" d="M44.6,34.9c0.6-0.5,1.2-0.6,1.5-0.4c0.1,0.1,0.1,0.1,0.2,0.1c0,0,0,0,0-0.1C45.8,35.2,45.2,35.4,44.6,34.9"/>
		<path class="st0" d="M51.5,54.4C51.5,54.4,51.5,54.4,51.5,54.4L51.5,54.4"/>
		<path class="st0" d="M51.5,54.4C51.5,54.4,51.5,54.4,51.5,54.4L51.5,54.4"/>
		<path class="st0" d="M51.8,55.5C51.7,55.4,51.7,55.4,51.8,55.5"/>
		<path class="st0" d="M51.8,55.5C51.7,55.4,51.7,55.4,51.8,55.5"/>
		<path class="st0" d="M51.9,55.4C51.9,55.3,51.9,55.3,51.9,55.4L51.9,55.4"/>
		<path class="st0" d="M51.9,55.4C51.9,55.3,51.9,55.3,51.9,55.4L51.9,55.4"/>
		<path class="st0" d="M51.9,56C51.9,56,51.9,56,51.9,56L51.9,56"/>
		<path class="st0" d="M51.9,56C51.9,56,51.9,56,51.9,56L51.9,56"/>
		<path class="st0" d="M45.1,35.3c0.4-0.2,0.7-0.5,1.3-0.6c-0.1,0.5-0.2,0.9-0.3,0.9C45.9,36.3,45.5,36,45.1,35.3"/>
		<path class="st0" d="M45.1,35.3c0.4-0.2,0.7-0.5,1.3-0.6c-0.1,0.5-0.2,0.9-0.3,0.9C45.9,36.3,45.5,36,45.1,35.3"/>
		<path class="st0" d="M52.6,56.7C52.7,56.6,52.6,56.7,52.6,56.7"/>
		<path class="st0" d="M52.6,56.7C52.7,56.6,52.6,56.7,52.6,56.7"/>
		<path class="st0" d="M53.8,56.7C53.8,56.7,53.8,56.7,53.8,56.7"/>
		<path class="st0" d="M53.8,56.7C53.8,56.7,53.8,56.7,53.8,56.7"/>
		<path class="st0" d="M46.8,40.3c0-0.4,0.2-0.8,0.4-1c-0.1-0.1,1,0.2,1.3,0.3c-0.2,0.3-0.6,1.2-1.1,1.6c0,0,0,0-0.1,0    c0-0.2-0.3-0.2-0.4-0.2c0,0,0.1-0.1,0-0.1C47.3,40.3,47.1,40.5,46.8,40.3"/>
		<rect x="83.2" y="13.7" class="st1" width="9" height="40.7"/>
		<polyline class="st1" points="98.4,13.7 125.7,13.7 125.7,21.9 107.4,21.9 107.4,30.2 124.4,30.2 124.4,38.5 107.4,38.5     107.4,54.4 98.4,54.4 98.4,13.7   "/>
		<path class="st1" d="M137.8,13.7h7.4L163,54.4h-10.1l-3.5-8.6h-15.8l-3.4,8.6h-9.9L137.8,13.7 M141.3,25.5l-4.9,12.7h10    L141.3,25.5z"/>
		<path class="st1" d="M153.3,15.3c0-1,0.8-1.8,1.9-1.8c1,0,1.9,0.8,1.9,1.8c0,1-0.8,1.8-1.9,1.8C154.2,17.1,153.3,16.3,153.3,15.3     M156.8,15.3c0-0.9-0.7-1.6-1.6-1.6c-0.8,0-1.6,0.7-1.6,1.6c0,0.9,0.7,1.6,1.6,1.6C156,16.9,156.8,16.2,156.8,15.3z M156.1,16.3    h-0.3l-0.6-0.9h-0.3v0.9h-0.3v-2h0.9c0.4,0,0.7,0.1,0.7,0.5c0,0.4-0.3,0.5-0.6,0.6L156.1,16.3z M155.1,15.1c0.3,0,0.7,0,0.7-0.3    c0-0.2-0.3-0.2-0.5-0.2h-0.5v0.5H155.1z"/>
		<rect x="12.6" y="62.3" class="st1" width="0.8" height="6.5"/>
		<polyline class="st1" points="19.6,62.3 19.6,68.8 18.4,68.8 15.9,63.1 15.8,63.1 15.8,68.8 15.1,68.8 15.1,62.3 16.3,62.3     18.8,67.8 18.8,67.8 18.8,62.3 19.6,62.3   "/>
		<polyline class="st1" points="24.7,62.3 24.7,63 23,63 23,68.8 22.2,68.8 22.2,63 20.5,63 20.5,62.3 24.7,62.3   "/>
		<polyline class="st1" points="25.6,68.8 25.6,62.3 28.9,62.3 28.9,63 26.4,63 26.4,65.1 28.7,65.1 28.7,65.8 26.4,65.8 26.4,68.1     29,68.1 29,68.8 25.6,68.8   "/>
		<path class="st1" d="M30.9,65.8v3h-0.8v-6.5h2.2c1.2,0,1.6,0.8,1.6,1.6c0,0.8-0.4,1.4-1.2,1.5v0c0.7,0.1,1,0.4,1.1,1.7    c0,0.3,0.1,1.3,0.2,1.7h-0.9c-0.2-0.5-0.2-1.3-0.3-2.2c-0.1-0.8-0.7-0.8-1-0.8H30.9 M30.9,65.1h1.2c0.6,0,0.9-0.5,0.9-1.1    c0-0.5-0.2-1-0.9-1h-1.3V65.1z"/>
		<polyline class="st1" points="39.6,62.3 39.6,68.8 38.5,68.8 35.9,63.1 35.9,63.1 35.9,68.8 35.1,68.8 35.1,62.3 36.3,62.3     38.8,67.8 38.9,67.8 38.9,62.3 39.6,62.3   "/>
		<path class="st1" d="M42.6,62.3h1.1l2.1,6.5h-0.9l-0.5-1.6h-2.5l-0.5,1.6h-0.8L42.6,62.3 M43.1,63L43.1,63l-1,3.5h2.1L43.1,63z"/>
		<polyline class="st1" points="49.6,62.3 49.6,63 47.9,63 47.9,68.8 47.1,68.8 47.1,63 45.3,63 45.3,62.3 49.6,62.3   "/>
		<rect x="50.6" y="62.3" class="st1" width="0.8" height="6.5"/>
		<path class="st1" d="M52.9,66.4v-2.1c0-1.3,0.7-2.1,2-2.1c1.4,0,2,0.8,2,2.1v2.1c0,1.8-0.7,2.5-2,2.5    C53.6,68.9,52.9,68.2,52.9,66.4 M56.2,66.4v-2.2c0-1.4-0.9-1.4-1.2-1.4c-0.3,0-1.2,0-1.2,1.4v2.2c0,1.4,0.4,1.8,1.2,1.8    C55.8,68.2,56.2,67.9,56.2,66.4z"/>
		<polyline class="st1" points="63,62.3 63,68.8 61.8,68.8 59.3,63.1 59.2,63.1 59.2,68.8 58.5,68.8 58.5,62.3 59.7,62.3 62.2,67.8     62.2,67.8 62.2,62.3 63,62.3   "/>
		<path class="st1" d="M65.9,62.3H67l2.1,6.5h-0.9l-0.5-1.6h-2.5l-0.5,1.6h-0.8L65.9,62.3 M66.5,63L66.5,63l-1,3.5h2.1L66.5,63z"/>
		<polyline class="st1" points="70,68.8 70,62.3 70.8,62.3 70.8,68.1 73.2,68.1 73.2,68.8 70,68.8   "/>
		<polyline class="st1" points="75.9,68.8 75.9,62.3 79.2,62.3 79.2,63 76.8,63 76.8,65.1 79,65.1 79,65.8 76.8,65.8 76.8,68.8     75.9,68.8   "/>
		<path class="st1" d="M80.8,65.8v3H80v-6.5h2.2c1.2,0,1.6,0.8,1.6,1.6c0,0.8-0.4,1.4-1.2,1.5v0c0.7,0.1,1,0.4,1.1,1.7    c0,0.3,0.1,1.3,0.2,1.7H83c-0.2-0.5-0.2-1.3-0.3-2.2c-0.1-0.8-0.7-0.8-1-0.8H80.8 M80.8,65.1H82c0.6,0,0.9-0.5,0.9-1.1    c0-0.5-0.2-1-0.9-1h-1.3V65.1z"/>
		<path class="st1" d="M86.5,62.3h1.1l2.1,6.5h-0.9l-0.5-1.6h-2.5l-0.5,1.6h-0.8L86.5,62.3 M87,63L87,63l-1,3.5H88L87,63z"/>
		<polyline class="st1" points="95,62.3 95,68.8 93.9,68.8 91.3,63.1 91.3,63.1 91.3,68.8 90.6,68.8 90.6,62.3 91.7,62.3 94.3,67.8     94.3,67.8 94.3,62.3 95,62.3   "/>
		<path class="st1" d="M99.4,64.1c0-0.4,0-0.7-0.2-0.9c-0.2-0.2-0.6-0.3-0.7-0.3c-0.7,0-1,0.4-1,0.5c0,0.1-0.2,0.2-0.2,1.4v1.7    c0,1.6,0.5,1.8,1.2,1.8c0.3,0,1-0.1,1-1.4h0.9c0,2.1-1.4,2.1-1.8,2.1c-0.8,0-2.1-0.1-2.1-2.6v-1.8c0-1.8,0.8-2.4,2.1-2.4    c1.3,0,1.8,0.7,1.7,1.9H99.4"/>
		<polyline class="st1" points="101.6,68.8 101.6,62.3 102.4,62.3 102.4,65.1 104.7,65.1 104.7,62.3 105.5,62.3 105.5,68.8     104.7,68.8 104.7,65.8 102.4,65.8 102.4,68.8 101.6,68.8   "/>
		<rect x="107.2" y="62.3" class="st1" width="0.8" height="6.5"/>
		<path class="st1" d="M110.2,66.8V67c0,0.9,0.6,1.2,1.1,1.2c0.7,0,1.2-0.3,1.2-1.1c0-1.4-2.9-1.3-2.9-3.2c0-1.2,0.8-1.8,1.9-1.8    c1.2,0,1.9,0.6,1.8,1.9h-0.9c0-0.7-0.2-1.2-1-1.2c-0.5,0-1,0.3-1,1c0,1.4,2.9,1.2,2.9,3.3c0,1.4-0.9,1.8-2,1.8    c-1.9,0-1.9-1.5-1.9-2.1H110.2"/>
		<polyline class="st1" points="114.6,68.8 114.6,62.3 117.9,62.3 117.9,63 115.4,63 115.4,65.1 117.7,65.1 117.7,65.8 115.4,65.8     115.4,68.1 118,68.1 118,68.8 114.6,68.8   "/>
		<path class="st1" d="M122.5,62.3h1.1l2.1,6.5h-0.9l-0.5-1.6h-2.5l-0.5,1.6h-0.8L122.5,62.3 M123,63L123,63l-1,3.5h2.1L123,63z"/>
		<path class="st1" d="M127.2,66.8V67c0,0.9,0.6,1.2,1.1,1.2c0.7,0,1.2-0.3,1.2-1.1c0-1.4-2.9-1.3-2.9-3.2c0-1.2,0.8-1.8,1.9-1.8    c1.2,0,1.9,0.6,1.8,1.9h-0.9c0-0.7-0.2-1.2-1-1.2c-0.5,0-1,0.3-1,1c0,1.4,2.9,1.2,2.9,3.3c0,1.4-0.9,1.8-2,1.8    c-1.9,0-1.9-1.5-1.9-2.1H127.2"/>
		<path class="st1" d="M132.2,66.8V67c0,0.9,0.6,1.2,1.1,1.2c0.7,0,1.2-0.3,1.2-1.1c0-1.4-2.9-1.3-2.9-3.2c0-1.2,0.8-1.8,1.9-1.8    c1.2,0,1.9,0.6,1.8,1.9h-0.9c0-0.7-0.2-1.2-1-1.2c-0.5,0-1,0.3-1,1c0,1.4,2.9,1.2,2.9,3.3c0,1.4-0.9,1.8-2,1.8    c-1.9,0-1.9-1.5-1.9-2.1H132.2"/>
		<path class="st1" d="M136.6,66.4v-2.1c0-1.3,0.7-2.1,2-2.1c1.4,0,2,0.8,2,2.1v2.1c0,1.8-0.7,2.5-2,2.5    C137.2,68.9,136.6,68.2,136.6,66.4 M139.8,66.4v-2.2c0-1.4-0.9-1.4-1.2-1.4c-0.3,0-1.2,0-1.2,1.4v2.2c0,1.4,0.4,1.8,1.2,1.8    C139.4,68.2,139.8,67.9,139.8,66.4z"/>
		<path class="st1" d="M145,64.1c0-0.4,0-0.7-0.2-0.9c-0.2-0.2-0.6-0.3-0.7-0.3c-0.7,0-1,0.4-1,0.5c0,0.1-0.2,0.2-0.2,1.4v1.7    c0,1.6,0.5,1.8,1.2,1.8c0.3,0,1-0.1,1-1.4h0.9c0,2.1-1.4,2.1-1.8,2.1c-0.8,0-2.1-0.1-2.1-2.6v-1.8c0-1.8,0.8-2.4,2.1-2.4    c1.3,0,1.8,0.7,1.7,1.9H145"/>
		<rect x="147.2" y="62.3" class="st1" width="0.8" height="6.5"/>
		<path class="st1" d="M151.1,62.3h1.1l2.1,6.5h-0.9l-0.5-1.6h-2.5l-0.5,1.6H149L151.1,62.3 M151.6,63L151.6,63l-1,3.5h2.1L151.6,63    z"/>
		<polyline class="st1" points="158.1,62.3 158.1,63 156.4,63 156.4,68.8 155.6,68.8 155.6,63 153.9,63 153.9,62.3 158.1,62.3   "/>
		<rect x="159.1" y="62.3" class="st1" width="0.8" height="6.5"/>
		<path class="st1" d="M161.5,66.4v-2.1c0-1.3,0.7-2.1,2-2.1c1.4,0,2,0.8,2,2.1v2.1c0,1.8-0.7,2.5-2,2.5    C162.1,68.9,161.5,68.2,161.5,66.4 M164.7,66.4v-2.2c0-1.4-0.9-1.4-1.2-1.4c-0.3,0-1.2,0-1.2,1.4v2.2c0,1.4,0.4,1.8,1.2,1.8    C164.3,68.2,164.7,67.9,164.7,66.4z"/>
		<polyline class="st1" points="171.5,62.3 171.5,68.8 170.4,68.8 167.8,63.1 167.8,63.1 167.8,68.8 167,68.8 167,62.3 168.2,62.3     170.7,67.8 170.8,67.8 170.8,62.3 171.5,62.3   "/>
	</g>
	<g>
		<polyline class="st3" points="53.9,97.5 53.9,87.3 49.9,94.9 48.3,94.9 44.3,87.3 44.3,97.5 41.3,97.5 41.3,82.1 44.5,82.1     49.1,90.9 53.7,82.1 56.9,82.1 56.9,97.5 53.9,97.5   "/>
		<polyline class="st3" points="72.9,94.9 72.9,97.5 62.2,97.5 62.2,82.1 72.7,82.1 72.7,84.8 65.2,84.8 65.2,88.5 71.7,88.5     71.7,90.9 65.2,90.9 65.2,94.9 72.9,94.9   "/>
		<polyline class="st3" points="90.1,97.5 90.1,87.3 86.1,94.9 84.5,94.9 80.5,87.3 80.5,97.5 77.5,97.5 77.5,82.1 80.7,82.1     85.3,90.9 89.9,82.1 93.1,82.1 93.1,97.5 90.1,97.5   "/>
		<path class="st3" d="M105.9,97.5h-7.4V82.1h8.2c2.2,0,3.5,2,3.5,3.9c0,1.5-0.8,2.9-2.2,3.6c1.8,0.5,2.9,1.9,2.9,3.9    C110.8,96.1,108.6,97.5,105.9,97.5 M101.4,84.7v3.9h4c1,0,1.8-0.7,1.8-2c0-1.2-0.7-1.9-1.7-1.9H101.4z M106,90.9h-4.6V95h4.4    c1.1,0,2-0.9,2-2C107.8,91.9,107,90.9,106,90.9z"/>
		<polyline class="st3" points="126,94.9 126,97.5 115.4,97.5 115.4,82.1 125.9,82.1 125.9,84.8 118.3,84.8 118.3,88.5 124.8,88.5     124.8,90.9 118.3,90.9 118.3,94.9 126,94.9   "/>
		<path class="st3" d="M130.6,97.5V82.1h6.8c2.8,0,4.9,2.6,4.9,5.1c0,2-1.1,3.8-2.8,4.5l3.6,5.8h-3.4l-3.2-5.2h-3v5.2H130.6     M133.6,89.8h3.8c1.1,0,2-1.1,2-2.5c0-1.4-1-2.5-2.1-2.5h-3.6V89.8z"/>
	</g>
</g>
</svg>