<svg xmlns="http://www.w3.org/2000/svg" xmlns:xlink="http://www.w3.org/1999/xlink" version="1.1" id="Layer_1" x="0px" y="0px" viewBox="0 0 512 512" style="enable-background:new 0 0 512 512;" xml:space="preserve" width="26px" height="26px" class=""><g><g><g><path d="M453.202,386.293L378.52,311.61c-15.546-15.544-40.751-15.562-56.314,0l-21.75,21.75 c-49.696-30.349-91.448-72.101-121.798-121.798l23.848-23.847c15.524-15.526,15.524-40.789-0.001-56.315l-74.682-74.682 c-15.502-15.5-40.671-15.644-56.361,0.047l-46.93,47.295C2.078,122.914-5.82,153.87,4.42,183.209    c52.546,150.577,173.814,271.844,324.39,324.39c28.33,9.884,57.422,2.492,75.919-16.565c0.267-0.236,0.528-0.48,0.783-0.736 l47.69-47.691C468.728,427.082,468.728,401.82,453.202,386.293z M429.412,418.817L382.8,465.429 c-0.569,0.472-1.107,0.985-1.613,1.535c-9.811,10.665-25.594,14.347-41.29,8.867C198.919,426.636,85.384,313.1,36.188,172.121 c-5.633-16.141-1.569-32.864,10.354-42.605c0.453-0.37,0.887-0.764,1.299-1.179l47.459-47.829 c1.573-1.574,3.412-1.809,4.367-1.809c0.956,0,2.793,0.234,4.367,1.809l74.68,74.682c2.408,2.408,2.408,6.325,0.001,8.733 l-33.043,33.043c-5.341,5.34-6.468,13.583-2.758,20.161c35.858,63.569,88.409,116.122,151.978,151.977    c6.577,3.711,14.82,2.582,20.161-2.757l30.945-30.945c2.409-2.409,6.32-2.412,8.733,0l74.682,74.682 C431.819,412.492,431.819,416.41,429.412,418.817z" data-original="#000000" class="active-path" data-old_color="#000000" fill="#FFFFFF"/></g></g><g><g><path d="M268.902,131.332c-9.291,0-16.823,7.532-16.823,16.823c0,9.291,7.531,16.823,16.823,16.823 c43.086,0,78.139,35.053,78.139,78.139c0,9.291,7.532,16.823,16.823,16.823s16.823-7.532,16.823-16.823 C380.687,181.479,330.54,131.332,268.902,131.332z" data-original="#000000" class="active-path" data-old_color="#000000" fill="#FFFFFF"/></g></g><g><g><path d="M268.902,65.304c-9.291,0-16.823,7.532-16.823,16.823s7.531,16.823,16.823,16.823 c79.494,0,144.167,64.673,144.167,144.167c0,9.291,7.532,16.823,16.823,16.823s16.823-7.532,16.823-16.823 C446.715,145.071,366.948,65.304,268.902,65.304z" data-original="#000000" class="active-path" data-old_color="#000000" fill="#FFFFFF"/></g></g><g><g><path d="M440.799,71.22C394.884,25.305,333.835,0.019,268.901,0.019c-9.291,0-16.823,7.532-16.823,16.823 c0,9.291,7.532,16.823,16.823,16.823c115.494,0,209.454,93.96,209.454,209.453c0,9.291,7.532,16.823,16.823,16.823 c9.291,0,16.823-7.532,16.823-16.823C512,178.183,486.714,117.136,440.799,71.22z" data-original="#000000" class="active-path" data-old_color="#000000" fill="#FFFFFF"/>
</g></g></g></svg>