<svg xmlns="http://www.w3.org/2000/svg" enable-background="new 0 0 2884.6 566" viewBox="0 0 2884.6 566"><g fill="#f5d74f"><path d="m2815 210.1-157.4-24-70.6-150.3c-5.3-11.2-23.7-11.2-28.9 0l-70.5 150.3-157.4 24c-12.9 2-18.1 17.7-9 27l114.3 117.2-27 165.7c-2.2 13.2 11.9 23 23.5 16.6l140.6-77.7 140.6 77.7c11.5 6.4 25.7-3.3 23.5-16.6l-27-165.7 114.3-117.2c9.1-9.3 3.9-25-9-27z"/><path d="m2251.7 210.1-157.4-24-70.5-150.3c-5.3-11.2-23.7-11.2-28.9 0l-70.5 150.3-157.4 24c-12.9 2-18.1 17.7-9 27l114.3 117.2-27 165.7c-2.2 13.2 11.9 23 23.5 16.6l140.6-77.7 140.6 77.7c11.5 6.4 25.7-3.3 23.5-16.6l-27-165.7 114.3-117.2c9-9.3 3.8-25-9.1-27z"/><path d="m1688.5 210.1-157.4-24-70.5-150.3c-5.3-11.2-23.7-11.2-28.9 0l-70.7 150.3-157.4 24c-12.9 2-18.1 17.7-9 27l114.4 117.2-27 165.7c-2.2 13.2 11.9 23 23.5 16.6l140.6-77.7 140.6 77.7c11.5 6.4 25.7-3.3 23.5-16.6l-27-165.7 114.3-117.2c9.1-9.3 3.9-25-9-27z"/><path d="m1125.2 210.1-157.4-24-70.5-150.3c-5.3-11.2-23.7-11.2-28.9 0l-70.5 150.3-157.4 24c-12.9 2-18.1 17.7-9 27l114.3 117.2-27 165.7c-2.2 13.2 11.9 23 23.5 16.6l140.6-77.7 140.6 77.7c11.5 6.4 25.7-3.3 23.5-16.6l-27-165.7 114.3-117.2c9-9.3 3.8-25-9.1-27z"/><path d="m562 210.1-157.4-24-70.6-150.3c-5.3-11.2-23.7-11.2-28.9 0l-70.5 150.3-157.4 24c-12.9 2-18.1 17.7-9 27l114.3 117.2-27 165.7c-2.2 13.2 11.9 23 23.5 16.6l140.6-77.7 140.6 77.7c11.5 6.4 25.7-3.3 23.5-16.6l-27-165.7 114.3-117.2c9.1-9.3 3.9-25-9-27z"/></g></svg>