<svg class="thrive_tree_svg" xmlns="http://www.w3.org/2000/svg" xmlns:xlink="http://www.w3.org/1999/xlink" version="1.1" id="Layer_1" x="0px" y="0px" viewBox="0 0 598 570" xml:space="preserve"><style type="text/css">.thrive_tree_svg .st0{fill-rule:evenodd;clip-rule:evenodd;fill:#563F30;}.thrive_tree_svg .st1{fill-rule:evenodd;clip-rule:evenodd;fill:#7E943D;}</style><g><path class="st0" d="M236,594.5c2.2,0,3.6-0.7,5.1-2.2c16.7-16.8,26-37.6,32.7-59.9c3.2-10.8,5.4-21.8,6.7-33c1.3-11,1.6-22.1,0.4-33.2c-1.2-10.9-3.6-21.4-8.6-31.2c-6.9-13.7-17.9-22.3-32.7-26.2c-9.3-2.5-18.7-4-28.4-3.7c-15.2,0.5-29.4,5-42.6,12.4c-4.9,2.7-9.5,5.7-14.3,8.6c-0.9,0.6-1.9,1-3,1.3c36.4-30.3,76.7-39.1,121.7-21.2c0-0.2,0.1-0.3,0.1-0.5c-2.6-4.9-5.1-9.8-7.8-14.7c-8.3-15.3-17.1-30.3-28-43.9c-3.9-4.8-8.1-9.4-12.3-13.9c-3.1-3.3-6.3-6.5-9.8-9.4c-14-11.4-29.5-19.6-47.5-22.2c-14.3-2.1-28.5-1.1-42.5,2.1c-3.4,0.8-6.9,1.4-10.4,2c-0.5,0.1-0.9,0-1.4-0.2c28.7-10.2,57.6-13.4,87.5-3c-12.7-26.6-9-51.5,6.5-75.3c-0.5,1.2-0.9,2.4-1.4,3.5c-3,6.2-5.7,12.4-7.3,19.2c-3.6,15.7-0.6,30.2,7.6,43.9c5.3,9,12.8,15.9,21.2,21.8c20.8,14.7,37.9,32.9,53.2,53.1c3.5,4.6,7,9.3,10.6,14.2c0-2.1,0.1-4,0-5.8c-0.3-7-0.7-14-1-21c-0.6-19.4-1.2-38.8-1.8-58.2c-0.4-13.5-0.7-27-1.3-40.5c-0.3-7.4-0.7-14.7-1.6-22c-1.1-8.5-5-16-10.1-22.8c-7.1-9.4-14.9-18.3-24.7-25c-12.2-8.4-25.7-12.4-40.4-11.7c-6.2,0.3-12.3,1.4-18.4,2.1c-1.5,0.2-2.9,0.4-4.6,0.6c2.4-1.9,21-6,33.7-5.6c11.7,0.4,22.9,2.9,33.4,8c10.5,5.1,19.5,12.1,28.1,20.7c-0.5-3.8-0.9-7.1-1.4-10.3c-1.6-10.1-3.5-20.2-6.6-30c-3.2-10.1-7.5-19.7-14.2-28.1c-8.7-10.9-20-17.5-33.5-20.5c-4.6-1-9.4-1.5-14.1-2.3c-0.5-0.1-1-0.2-1.5-0.8c3,0.1,6.1,0.2,9.1,0.5c9.4,0.9,18.5,2.9,27.1,6.9c14.3,6.6,24.7,17.4,32.6,30.7c7.6,12.8,12.4,26.7,16.7,40.9c2.6,8.4,4,17.1,5.2,25.7c0.1,0.6,0.3,1.2,0.5,2.3c12.1-31.2,34.8-47.8,67.7-50.4c-2.1,0.5-4.3,1.1-6.4,1.6c-22.7,4.9-37.2,19.2-45.8,40.1c-4.2,10.3-6.6,21.1-8.3,32.2c-2.4,16.4-2.6,33-2.1,49.5c0.3,11.2,1.3,22.4,2.1,33.6c0.2,2.7,0.4,5.4,0.6,8.5c0.6-0.7,1-1.2,1.3-1.6c9.5-13.9,19.6-27.4,30.7-40.1c7-8.1,15-15.1,23.1-22c10.2-8.7,20.7-17.2,29.9-27.1c7.6-8.2,14.1-17.3,17.5-28.1c4-12.6,2.9-25-1.2-37.3c-1.2-3.5-2.5-7.1-3.5-10.6c13.7,25.6,14.9,51.3-0.7,77.2c16-5.5,31.9-7,48.2-5.6c13.4,1.1,26.2,4.4,38.8,8.5c0,0.2,0,0.3-0.1,0.5c-1-0.1-1.9-0.1-2.9-0.3c-1-0.1-1.9-0.4-2.9-0.5c-8.1-1.4-16.3-2.9-24.4-4.1c-3.1-0.5-6.3-0.4-9.5-0.4c-4.7,0.1-9.4,0.1-13.9,0.9c-16.1,2.8-30.7,9-43.7,19c-14.2,10.9-25.6,24.4-35.6,39.2c-2.7,4-5.2,8-7.7,12.2c26.1-10.3,52.5-13.5,79.6-4.8c14.6,4.7,37.3,17.7,44.3,25.6c-1-0.5-2-0.9-2.9-1.5c-4.9-2.9-9.8-6-14.8-8.8 c-10.1-5.6-20.7-9.5-32.2-11.3c-16.2-2.4-31.9-0.2-47.1,5.7c-9.8,3.8-19.2,8.4-27.5,15c-11.1,8.9-18.9,20.2-24.3,33.2c-4.8,11.3-7.6,23.2-9.4,35.3c-2.2,15.4-2.9,30.9-3.1,46.5c0,4.2-0.2,8.4-0.1,12.6c0.4,14.3,0.8,28.5,1.3,42.8c0.3,8.9,0.8,17.8,1.2,26.7c0.6,11.6,1.2,23.1,1.7,34.7c0.4,9.7,0.6,19.5,0.8,29.2c0,0.6,1.3,2.1,1.9,2.1L236,594.5z"/><path class="st1" d="M565,225.1c-4.4,2.9-8.7,5.9-13.2,8.5c-7.4,4.4-15.3,7.7-23.9,9.1c-5.5,0.9-11,1-16.3-0.7c-11.9-4-23.4-9-33.6-16.5c-1.1-0.8-2.2-1.8-3.5-2.9c1.7-1.2,3.2-2.4,4.8-3.4c10.6-6.6,21.9-11.3,34-14.2c8.4-2,16.6-0.2,24.5,2.9c9.9,3.9,18.5,9.8,26.7,16.5c0.2,0.2,0.4,0.3,0.6,0.4C565,224.8,565,224.9,565,225.1z"/><path class="st1" d="M566.4,313.6c-4.4,2.9-8.7,5.9-13.2,8.5c-7.4,4.4-15.3,7.7-23.9,9.1c-5.5,0.9-11,1-16.3-0.7c-11.9-4-23.4-9-33.6-16.5c-1.1-0.8-2.2-1.8-3.5-2.9c1.7-1.2,3.2-2.4,4.8-3.4c10.6-6.6,21.9-11.3,34-14.2c8.4-2,16.6-0.2,24.5,2.9c9.9,3.9,18.5,9.8,26.7,16.5c0.2,0.2,0.4,0.3,0.6,0.4C566.4,313.3,566.4,313.5,566.4,313.6z"/><path class="st1" d="M15.6,340.3c4.3-5.3,8.3-10.9,13-15.9c5.4-5.8,11.9-10.2,19.9-12.1c1.9-0.4,3.9-0.8,5.9-0.8c10.2,0.1,20.4,0.6,30.3,3.6c0.7,0.2,1.4,0.5,2.1,0.8c0.2,0.1,0.4,0.2,1,0.6c-1.8,2.4-3.4,4.8-5.3,7c-5.3,6.2-11.5,11.5-18,16.4c-6.4,4.8-13.8,6.2-21.7,6.2c-8.6-0.1-16.7-2.1-24.8-4.7c-0.8-0.2-1.5-0.4-2.3-0.6C15.6,340.6,15.6,340.4,15.6,340.3z"/><path class="st1" d="M508.4,147.3c-1.3,6.4-2.3,12.5-3.7,18.5c-2.5,10.9-6.3,21.3-12.6,30.6c-5.3,7.9-12.1,13.9-20.9,17.8c-11.4,5.1-23,9.9-35.3,12.5c-3.2,0.7-6.4,1-10.1,1.6c0.4-2.7,0.5-5,1-7.3c3.1-14.7,8.9-28.5,15.9-41.7c5.2-9.9,13.9-16.3,23.7-21.1c9.9-4.9,20.5-7.6,31.4-9.4C501.1,148.3,504.4,147.8,508.4,147.3z"/><path class="st1" d="M212.8,237.6c4.5,1.7,8.9,3.2,13.2,4.9c9.8,3.9,19,8.8,27.3,15.4c10.4,8.3,17.1,18.7,19.6,31.8c1.7,9,3.5,18,4.7,27.1c0.7,5,0.1,10.1,0.1,15.2c0,0.2-0.1,0.5-0.3,1c-2.8-1-5.7-1.8-8.4-3c-9-3.7-17.3-8.7-25.3-14.2c-3.9-2.7-7.8-5.3-11.4-8.3c-8.9-7.4-13.7-17.2-16.6-28.1c-3.3-12.6-3.9-25.5-3.1-38.5C212.7,240,212.7,239,212.8,237.6z"/><path class="st1" d="M326.6,388.8c7-1,13.8-0.7,20.5,0.4c9.8,1.7,19.5,3.7,29.1,6.1c5,1.2,9.4,4,13.7,7c10.9,7.5,17.6,18.1,23.1,29.6c3.2,6.6,5.5,13.6,8.2,20.4c0.2,0.4,0.2,0.8,0.4,1.8c-5.9,0-11.7,0.1-17.4,0c-9-0.3-17.9-1.3-26.5-3.9c-7.5-2.3-14.6-5.5-20.6-10.6c-3.3-2.8-6.2-6.1-8.5-9.8c-3.2-5-6.9-9.6-10.1-14.6c-5-8-9.4-16.2-11.9-25.4C326.6,389.4,326.6,389.2,326.6,388.8z"/><path class="st1" d="M211.4,419.9c0.3,7.1-0.7,13.8-2.5,20.4c-2.7,9.5-5.7,19-9,28.4c-1.7,4.9-4.9,9-8.3,12.9c-8.6,10-19.8,15.7-31.8,20c-6.9,2.5-14.1,4.1-21.1,6.1c-0.4,0.1-0.8,0.1-1.8,0.3c0.6-5.9,1.1-11.6,1.8-17.3c1.2-8.9,3.1-17.6,6.6-26c3-7.3,6.9-13.9,12.7-19.4c3.2-3,6.7-5.5,10.6-7.5c5.3-2.7,10.3-5.9,15.6-8.5c8.4-4.2,17.1-7.7,26.5-9.3C210.8,420,211,420,211.4,419.9z"/><path class="st1" d="M96.8,221.4c4.4,0,8.7-0.2,12.9,0c9.6,0.5,19,1.8,28.2,4.8c9.6,3.1,18.4,7.5,25,15.2c4.1,4.9,7.5,10.4,10.8,15.9c5.6,9.1,10.5,18.6,13.5,28.9c0.4,1.5,0.7,2.9,1.2,5c-5.8-0.4-11.2-0.5-16.5-1.2c-10.9-1.5-21.5-4.4-31.9-7.8c-11.3-3.7-19.6-11.2-26.3-20.8c-7.8-11.2-12.5-23.9-16.3-36.9c-0.3-0.9-0.5-1.9-0.7-2.9C96.7,221.6,96.8,221.4,96.8,221.4z"/><path class="st1" d="M243.9,378.7c-5.9,2.6-11.7,4-17.6,5.1c-9.8,1.8-19.6,2.5-29.5,2.9c-10.3,0.5-19.7-2.4-28.5-7.8c-13.4-8.2-23.4-19.9-32.4-32.5c-0.5-0.8-1.1-1.5-1.6-2.3c-0.1-0.1-0.1-0.2-0.2-0.6c0.5-0.2,1-0.4,1.6-0.6c10-3.6,20.2-6.5,30.8-7.7c10.2-1.2,20.4-1.2,30.2,2.5c6.2,2.4,11.9,5.8,17.1,10.2c8,6.6,15.9,13.2,22.6,21.1C239,372.1,241.3,375.4,243.9,378.7z"/><path class="st1" d="M346.7,76.8c1.1,4.6,2.4,8.8,3.2,13.2c1.7,9.4,3.2,18.8,2.7,28.4c-0.7,13.3-4.5,25.3-13.8,35.3c-8.4,9-16.9,17.9-27.1,25.1c-2.5,1.8-5.2,3.3-8.2,5.2c-0.8-3-1.6-5.7-2.2-8.3c-2.6-12.6-2.5-25.3-2.3-38.1c0.1-8.4,2.2-16.2,6.3-23.5c3.8-6.8,8.9-12.7,14.6-18C327.9,88.6,336.9,82.5,346.7,76.8z"/><path class="st1" d="M511.6,280.3c-14.1,9.8-28.3,18-44.9,21.2c-10.1,1.9-20,1.2-29.6-2.9c-11-4.8-21.9-9.7-31.8-16.6c-2.4-1.7-4.7-3.6-7-5.4c-0.6-0.4-1-1.1-1.8-2c4.1-2.4,7.9-4.8,11.8-7.1c2.3-1.3,4.6-2.6,7-3.6c4.2-1.8,8.6-3.3,12.9-4.9c3.1-1.2,6.2-2.3,9.4-3.4c14.3-5,28-2.9,41.4,3.1c11.7,5.2,21.9,12.7,31.6,20.9C510.7,279.9,511,280,511.6,280.3z"/><path class="st1" d="M377.5,176.1c3.7,16.8,6,33.1,2.6,49.6c-2,10.1-6.4,19-13.9,26.3c-8.6,8.4-17.3,16.6-27.4,23.2c-2.5,1.6-5.1,3-7.7,4.4c-0.6,0.3-1.4,0.5-2.5,0.9c-0.7-4.7-1.5-9.1-2.1-13.5c-0.4-2.6-0.7-5.2-0.7-7.9c0-4.6,0.2-9.2,0.3-13.8c0.1-3.3,0.3-6.6,0.4-9.9c0.7-15.1,7.9-27,18.5-37.1c9.3-8.8,20-15.5,31.3-21.4C376.7,176.8,376.9,176.5,377.5,176.1z"/><path class="st1" d="M436.6,325.7c-0.8,1.6-1.5,3-2.2,4.3c-5.7,10.6-12.2,20.7-20.7,29.3c-7.6,7.7-16.3,13.9-27.2,16.1c-4.5,0.9-9,1.4-13.6,1.6c-7.5,0.4-15,0.5-22.5,0.4c-6-0.1-12-0.9-18.1-2.7c1.1-2.2,2.1-4.3,3.3-6.3c8.1-13.4,18.5-25,30.1-35.3c6.6-5.8,14.7-8.7,23.3-10.2c13.5-2.4,26.9-1.2,40.2,1.2C431.6,324.6,433.9,325.1,436.6,325.7z"/><path class="st1" d="M265.7,46.1c9.7,7.9,18.7,16.4,24.8,27.4c4.6,8.4,6.4,17.2,4.9,26.8c-1.3,8.4-2.4,16.7-5,24.8c-1,3-2.3,5.9-3.6,9.3c-2.2-1.9-4.2-3.3-5.9-5c-8.1-7.8-14.7-16.8-20.4-26.4c-4.5-7.7-5.3-16.2-4.5-24.9c1-10.8,4.6-20.9,8.9-30.8C265.2,47,265.5,46.6,265.7,46.1z"/><path class="st1" d="M202.2,24.7c11.5,5.1,22.4,10.8,31.2,19.8c6.7,6.8,10.7,14.9,11.9,24.5c1,8.4,2.1,16.8,1.8,25.2c-0.1,3.2-0.6,6.3-0.9,9.9c-2.7-1.2-4.9-2.1-7-3.2c-9.8-5.4-18.6-12.2-26.7-20c-6.4-6.2-9.5-14.2-11-22.8c-1.9-10.7-1.2-21.4,0.4-32C202,25.6,202.1,25.2,202.2,24.7z"/><path class="st1" d="M184.9,250.5c-4.8-3.3-8.8-7.2-12.1-11.5c-4.5-5.7-8.8-11.6-12.9-17.7c-3.8-5.6-5.5-11.9-5.8-18.7c-0.6-12.5,3-24.2,7.6-35.6c0.6-1.5,1.3-2.9,2-4.7c2,1.7,4,3.3,5.9,4.9c7.3,6.5,14,13.5,18.8,22.1c4.7,8.3,6.6,17.1,5.2,26.7   c-1.4,9.5-2.8,19.1-6.1,28.2C186.7,246.3,185.8,248.3,184.9,250.5z"/><path class="st1" d="M127.4,288.4c-3.1,1.7-5.7,3.3-8.5,4.5c-9.6,4.4-19.8,7.3-30.1,9.3c-7.4,1.4-14.6-0.1-21.6-2.9c-11.6-4.7-21.1-12.5-30.4-21.6c6.3-3.1,12.2-6.2,18.3-8.9c6.8-3.1,14-4.9,21.4-5.4c6-0.4,11.9,0.4,17.4,3c9.9,4.6,19.4,9.8,27.9,16.8C123.6,284.8,125.3,286.5,127.4,288.4z"/><path class="st1" d="M181.3,399.2c-4.2,2.1-7.8,4.2-11.6,5.8c-8.9,3.8-18.1,6.5-27.6,8.1c-8.3,1.4-16.2-0.6-23.8-4.1c-10.4-4.8-19.1-12-27.4-20c0.3-0.3,0.5-0.5,0.7-0.6c9.9-5.9,20.2-11,31.6-13.2c9.4-1.8,18.4-1.1,27,3.4c9,4.6,17.9,9.5,25.8,16c0.7,0.6,1.3,1.1,1.9,1.7C179,397.1,179.9,397.9,181.3,399.2z"/><path class="st1" d="M385.9,384.9c3.6-1.7,6.8-3.3,10.2-4.6c9.2-3.5,18.8-5.7,28.5-7.1c6.6-0.9,13,0.2,19.2,2.8c12.6,5.2,22.4,14.1,31.8,24.1c-4.3,2-8.4,4.1-12.6,5.9c-9.2,3.9-18.7,6.7-28.9,6.5c-5-0.1-10-0.9-14.5-3.2c-10.6-5.4-20.7-11.6-29.4-19.8C388.9,388.2,387.6,386.7,385.9,384.9z"/><path class="st1" d="M427.6,182.5c-3.4-5-5.3-9.7-6.9-14.6c-2.9-8.7-5.2-17.6-6.2-26.8c-0.6-6.3,0.9-12.4,3.4-18.2c4.3-10.3,11.3-18.7,18.9-26.6c1.3-1.3,2.4-2.8,3.5-4.3c0.3,0.1,0.7,0.3,1,0.4c2.6,5.7,5.4,11.4,7.7,17.2c3.4,8.5,5.3,17.3,4.7,26.6c-0.3,4.5-1.3,8.9-3.4,13c-5.2,10.1-11.1,19.9-18.7,28.4C430.3,179.1,429,180.8,427.6,182.5z"/><path class="st1" d="M178.8,117.3c11.6-0.8,22.9-1.1,34,1.7c10.5,2.6,19,8,25.3,16.9c6.1,8.6,12.2,17.1,16,27c0.3,0.7,0.5,1.4,0.7,2.1c0.1,0.3,0.2,0.6,0.4,1.3c-4.1,0.1-7.9,0.4-11.8,0.2c-9.4-0.5-18.7-2.1-27.8-4.5c-9.1-2.4-16-8.1-21.7-15.4C187.1,137.9,182.6,127.9,178.8,117.3z"/><path class="st1" d="M506.6,396.3c-3.1-0.6-5.8-1.1-8.6-1.7c-9.2-2.1-18.2-5-26.3-10c-7.8-4.8-13.7-11.3-17.1-19.9c-3.4-8.7-6.8-17.5-8.5-26.7c-0.5-2.7-0.7-5.4-1.1-8.2c5.2,0.3,9.8,1.5,14.2,3.4c7.6,3.2,15.2,6.5,22.5,10.3c8.6,4.4,13.9,12.1,17.6,20.8c3.5,8.1,5.3,16.7,6.4,25.4C506.1,391.7,506.4,393.9,506.6,396.3z"/><path class="st1" d="M211.5,100.3c-4,1.8-7.8,3.8-11.9,5.4c-7.2,2.8-14.6,5-22.2,6c-4.8,0.6-9.4-0.4-14-1.9c-9.5-3.1-20.6-11.7-27.2-18.7c6.1-3.7,12.3-7,19.1-9.3c5.3-1.8,10.7-3.2,16.3-2.9c3.5,0.2,7.3,0.6,10.5,1.9c10,4.1,19.3,9.4,27.4,16.7c0.7,0.6,1.5,1.1,2.2,1.7C211.6,99.6,211.5,100,211.5,100.3z"/><path class="st1" d="M143.7,424.7c-3.3,5.6-7.5,10.1-12,14.2c-3.3,3-6.7,5.9-10.2,8.7c-5.5,4.5-11.9,6.5-18.8,6.9c-10.7,0.6-20.8-1.9-31.2-5.5c2.4-3.2,4.5-6.2,6.8-9.2c4.3-5.4,9-10.2,14.8-14c6-4,12.6-6.2,19.9-5.9c8.5,0.3,17,0.8,25.3,3C140.1,423.4,141.8,424,143.7,424.7z"/><path class="st1" d="M142.9,325.8c-3.1,5.8-7.1,10.4-11.4,14.8c-3.1,3.2-6.5,6.1-9.8,9.1c-5.3,4.7-11.6,7-18.5,7.7c-10.6,1.1-20.9-1-31.4-4.1c2.2-3.3,4.2-6.4,6.4-9.5c4-5.5,8.6-10.6,14.2-14.6c5.9-4.2,12.3-6.7,19.6-6.8c8.5-0.1,17.1,0.1,25.5,1.9C139.3,324.6,140.9,325.2,142.9,325.8z"/><path class="st1" d="M405.6,108.7c-0.7,3.9-1.3,7.6-2.1,11.2c-1.9,8.5-4.8,16.7-10.4,23.7c-2.9,3.6-6.3,6.5-10.4,8.5c-8,3.8-16.2,7.3-24.9,9.1c-2,0.4-4,0.6-6.6,1c1-4.2,1.5-8.2,2.8-11.8c2.4-6.7,5-13.4,8.1-19.8c3.6-7.6,10.2-12.2,17.7-15.6c7.8-3.5,16-5.2,24.4-6.4C404.5,108.6,404.8,108.7,405.6,108.7z"/><path class="st1" d="M269.1,224c-1.8,0.4-3.5,1-5.2,1c-6.5,0.1-13.1,0.2-19.6-0.1c-4-0.2-8.2-0.8-12-1.9c-8.4-2.4-14.5-8-19.7-14.7c-4.3-5.5-7.7-11.6-10.7-17.9c-0.1-0.2-0.1-0.5-0.2-0.8c8.4-1.8,16.9-2.5,25.4-1.8c6.7,0.6,13.1,2.2,18.5,6.3c3.5,2.6,6.5,5.9,9.4,9.1c4.9,5.4,9.4,11.2,12.7,17.7C268.1,221.8,268.5,222.7,269.1,224z"/><path class="st1" d="M499.4,340.1c3.4,0,6.5-0.4,9.5,0.1c7.2,1.1,14.5,2.5,21.6,4.1c8.2,1.9,14.3,7,19.2,13.6c5.6,7.5,9,16,11.9,24.8c0.1,0.2,0.1,0.5,0.1,0.9c-12.9,0.5-25.5,0.2-37.1-6.2c-3.7-2-7-4.7-9.5-8.2c-5.8-8-11.3-16.2-14.6-25.7C500.1,342.5,499.9,341.5,499.4,340.1z"/>
</g></svg>