<svg xmlns="http://www.w3.org/2000/svg" enable-background="new 0 0 89.7 42.4" viewBox="0 0 89.7 42.4"><path d="m22 28.7v6.2h-2v-15.2h5.2c1.3 0 2.4.4 3.4 1.3.9.9 1.4 1.9 1.4 3.2s-.5 2.4-1.4 3.2c-.9.9-2 1.3-3.4 1.3zm0-7.1v5.3h3.3c.8 0 1.4-.3 1.9-.8s.8-1.1.8-1.9c0-.7-.3-1.3-.8-1.8s-1.2-.8-1.9-.8z" fill="#777677"/><path d="m35.3 24.2c1.4 0 2.6.4 3.4 1.2s1.3 1.8 1.3 3.2v6.4h-1.9v-1.4h-.1c-.8 1.2-1.9 1.8-3.2 1.8-1.1 0-2.1-.3-2.9-1s-1.2-1.5-1.2-2.5c0-1.1.4-1.9 1.2-2.6.8-.6 1.9-1 3.3-1 1.2 0 2.1.2 2.9.6v-.4c0-.7-.3-1.3-.8-1.7-.5-.5-1.2-.7-1.9-.7-1.1 0-2 .5-2.6 1.4l-1.8-1.3c1-1.4 2.4-2 4.3-2zm-2.6 7.5c0 .5.2.9.6 1.3.4.3.9.5 1.5.5.8 0 1.6-.3 2.2-.9s1-1.3 1-2.1c-.6-.5-1.5-.7-2.5-.7-.8 0-1.5.2-2 .6-.5.3-.8.8-.8 1.3z" fill="#777677"/><path d="m42.1 24.5h1.9v1.7h.1c.6-1.3 1.8-2 3.6-2h.4v2l-.9-.1c-.9 0-1.7.3-2.2.8-.6.6-.9 1.3-.9 2.1v5.7h-2zm12.2 10.6c-.8 0-1.6-.3-2.1-.8-.6-.5-.8-1.3-.9-2.2v-5.8h-1.8v-1.8h1.8v-3.2h2v3.2h2.5v1.8h-2.5v5.2c0 .7.1 1.2.4 1.4s.6.4.9.4c.2 0 .3 0 .5-.1.1 0 .3-.1.4-.1l.6 1.7c-.5.2-1.1.3-1.8.3z" fill="#777677"/><path d="m57.8 24.5h1.9v1.4h.1c.3-.5.8-.9 1.4-1.3.6-.3 1.3-.5 1.9-.5 1.3 0 2.3.4 2.9 1.1.7.7 1 1.8 1 3.1v6.5h-2v-6.4c0-1.7-.9-2.5-2.6-2.5-.8 0-1.4.3-2 .9-.5.6-.8 1.4-.8 2.3v5.8h-2v-10.4z" fill="#777677"/><path d="m74 35.2c-1.5 0-2.8-.5-3.8-1.6-1-1-1.5-2.4-1.5-4s.5-2.9 1.4-4c1-1.1 2.2-1.6 3.7-1.6s2.8.5 3.7 1.5 1.4 2.4 1.4 4.2v.2h-8.2c0 1 .4 1.8 1 2.5.7.6 1.4.9 2.3.9 1.2 0 2.2-.6 2.9-1.9l1.7.8c-.5.9-1.1 1.6-1.9 2.1-.7.7-1.7.9-2.7.9zm-3.1-6.8h6c-.1-.7-.4-1.3-.9-1.8s-1.2-.7-2.1-.7c-.7 0-1.4.2-1.9.7-.6.5-1 1.1-1.1 1.8z" fill="#777677"/><path d="m82.7 34.9h-2v-10.4h1.9v1.7h.1c.2-.6.6-1 1.2-1.4s1.2-.6 1.8-.6 1 .1 1.4.3l-.6 1.9c-.2-.1-.6-.1-1.1-.1-.7 0-1.4.3-1.9.9s-.8 1.3-.8 2.1z" fill="#777677"/><path d="m32.7 11.1c-.5 0-.9.2-1.3.5-.3.3-.5.8-.5 1.3s.2 1 .5 1.3c.3.4.8.5 1.3.5s.9-.2 1.2-.5c.3-.4.5-.8.5-1.3 0-.6-.2-1-.5-1.3s-.7-.5-1.2-.5z" fill="none"/><path d="m46.3 11.1c-.5 0-.9.2-1.2.6s-.5.8-.5 1.3.2 1 .5 1.3c.3.4.8.5 1.2.5.5 0 .9-.2 1.2-.5s.5-.8.5-1.3-.2-1-.5-1.4c-.3-.3-.7-.5-1.2-.5z" fill="none"/><path d="m39.5 11.1c-.5 0-.9.2-1.3.5-.3.3-.5.8-.5 1.3s.2 1 .5 1.3c.3.4.8.5 1.3.5s.9-.2 1.2-.5c.3-.4.5-.8.5-1.3 0-.6-.2-1-.5-1.3s-.7-.5-1.2-.5z" fill="none"/><path d="m55.9 11.2c-.2-.1-.5-.2-.7-.2-.4 0-.8.2-1.2.5-.3.3-.5.8-.5 1.3l2.8-1.2c0-.1-.2-.2-.4-.4z" fill="none"/><path d="m24.5 10.8v1.3h3.2c-.1.8-.5 1.5-1 2-.6.5-1.3.7-2.1.7-1 0-1.8-.3-2.5-1s-1-1.5-1-2.5.3-1.8 1-2.5 1.5-1 2.5-1c.9 0 1.7.3 2.4.9l.9-.9c-.9-.9-2-1.3-3.3-1.3-.9 0-1.7.2-2.5.7-.8.4-1.4 1-1.8 1.8-.4.7-.7 1.5-.7 2.4s.2 1.7.7 2.4c.4.7 1 1.3 1.8 1.8.8.4 1.6.7 2.5.7 1.3 0 2.4-.4 3.3-1.2s1.3-1.9 1.3-3.2c0-.3 0-.6-.1-.8h-4.6z" fill="#487cbf"/><path d="m32.7 9.9c-.9 0-1.6.3-2.2.9s-.9 1.3-.9 2.2.3 1.6.9 2.2 1.3.9 2.2.9 1.6-.3 2.2-.9.9-1.3.9-2.2-.3-1.6-.9-2.2-1.4-.9-2.2-.9zm1.2 4.4c-.3.4-.8.5-1.2.5-.5 0-.9-.2-1.3-.5-.3-.4-.5-.8-.5-1.3 0-.6.2-1 .5-1.3.3-.4.8-.5 1.3-.5s.9.2 1.3.5c.3.3.5.8.5 1.3-.1.5-.2 1-.6 1.3z" fill="#ef372c"/><path d="m50.2 6.7h1.4v9.2h-1.4z" fill="#00ac4e"/><path d="m39.5 9.9c-.9 0-1.6.3-2.2.9s-.9 1.3-.9 2.2.3 1.6.9 2.2 1.3.9 2.2.9 1.6-.3 2.2-.9.9-1.3.9-2.2-.3-1.6-.9-2.2-1.3-.9-2.2-.9zm1.3 4.4c-.3.4-.8.5-1.2.5-.5 0-.9-.2-1.3-.5-.3-.4-.5-.8-.5-1.3 0-.6.2-1 .5-1.3.3-.4.8-.5 1.3-.5s.9.2 1.3.5c.3.3.5.8.5 1.3-.1.5-.3 1-.6 1.3z" fill="#fdb614"/><path d="m55.3 14.9c-.7 0-1.2-.3-1.5-.9l4.2-1.7-.1-.4c-.1-.3-.3-.6-.4-.8-.2-.2-.4-.5-.6-.6-.2-.2-.5-.3-.8-.4s-.6-.1-.9-.1c-.8 0-1.5.3-2.1.9s-.8 1.3-.8 2.2.3 1.6.9 2.2 1.3.9 2.2.9c1.1 0 2-.5 2.6-1.4l-1.2-.8c-.4.6-.9.9-1.5.9zm-1.3-3.3c.3-.3.7-.5 1.2-.5.3 0 .5.1.7.2s.4.3.4.5l-2.8 1.2c0-.6.2-1.1.5-1.4z" fill="#ef372c"/><path d="m47.9 10.6c-.4-.5-1-.7-1.7-.7-.8 0-1.5.3-2.1.9s-.9 1.4-.9 2.2c0 .9.3 1.6.9 2.2s1.3.9 2.1.9c.7 0 1.3-.2 1.6-.7v.3c0 1.3-.6 2-1.7 2-.4 0-.7-.1-.9-.3-.3-.2-.5-.5-.6-.8l-1.2.5c.1.3.3.5.5.8.2.2.4.4.6.6s.5.3.8.4.6.1.9.1c.9 0 1.7-.3 2.2-.8.5-.6.8-1.4.8-2.4v-5.8h-1.3zm-.4 3.7c-.3.4-.7.5-1.2.5s-.9-.2-1.2-.5c-.3-.4-.5-.8-.5-1.3s.2-1 .5-1.3c.3-.4.8-.6 1.2-.6.5 0 .9.2 1.2.5.3.4.5.9.5 1.4s-.2 1-.5 1.3z" fill="#487cbf"/><path d="m2 2h10v37.9h-10z" fill="#eb4535"/><g fill="#fff"><path d="m5.1 33.2v-1.2c0-.8.3-1.4 1.1-1.4s1.2.6 1.2 1.4v.5h1.3v.6h-3.6zm1.8-1.1c0-.5-.2-.8-.7-.8s-.6.3-.6.8v.4h1.3z"/><path d="m5.1 29.4v-1.2c0-.8.3-1.3 1.1-1.3s1.1.6 1.1 1.3v.6h1.4v.6zm1.7-1.2c0-.5-.2-.8-.6-.8s-.6.3-.6.8v.5h1.2zm.4.1-.4-.5 2-1.1v.7z"/><path d="m5.1 25.6v-2.2h.5v1.5h.9v-1.3h.5v1.3h1.1v-1.6h.5v2.2h-3.5z"/><path d="m5.1 22v-.7l1.8-.6c.2-.1.5-.2.7-.2-.2-.1-.5-.1-.7-.2l-1.8-.6v-.7h3.6v.6h-1.6c-.3 0-.8-.1-1.2-.1l.8.3 1.6.6v.4l-1.6.6-.7.1c.3 0 .8-.1 1.2-.1h1.7v.6z"/><path d="m5.1 17.3v-.6h3.6v.6z"/><path d="m5.1 15.2v-2.2h.5v1.5h.9v-1.3h.5v1.3h1.1v-1.5h.5v2.2z"/><path d="m5.1 11.7v-1.2c0-.8.3-1.3 1.1-1.3s1.1.6 1.1 1.3v.5h1.4v.6h-3.6zm1.7-1.2c0-.5-.2-.8-.6-.8s-.6.3-.6.8v.5h1.2zm.4.1-.4-.5 2-1.1v.7z"/></g></svg>