<svg xmlns="http://www.w3.org/2000/svg" xmlns:xlink="http://www.w3.org/1999/xlink" version="1.1" id="Layer_1" x="0px" y="0px" viewBox="0 0 566 221.2" style="enable-background:new 0 0 566 221.2;" xml:space="preserve"><style type="text/css">
  .st0{fill:#357160;}</style><g> <path class="st0" d="M225.5,44.6c0,8.1,0.2,9.2,4.6,9.6l2.5,0.2c0.5,0.3,0.3,1.7-0.2,1.9c-4.4-0.2-7-0.2-10.1-0.2   c-3.1,0-5.8,0.1-10.7,0.2c-0.5-0.2-0.6-1.5,0-1.9l2.8-0.2c4.4-0.4,4.8-1.5,4.8-9.6V10.2c0-2.4,0-2.5-2.3-2.5h-4.2   c-3.3,0-7.6,0.2-9.5,1.9c-1.9,1.7-2.6,3.4-3.5,5.3c-0.6,0.5-1.7,0.1-2-0.5c1.2-3.5,2.4-8.4,2.9-11.5c0.2-0.2,1.2-0.2,1.5,0   c0.5,2.5,3,2.4,6.5,2.4h31.2c4.2,0,4.9-0.2,6-2.2c0.4-0.2,1.2-0.1,1.4,0.2c-0.9,3.2-1.4,9.4-1.2,11.7c-0.3,0.6-1.6,0.6-2,0.2   c-0.2-1.9-0.8-4.8-1.9-5.6c-1.8-1.3-4.7-1.9-8.9-1.9h-5.5c-2.3,0-2.2,0.1-2.2,2.6L225.5,44.6L225.5,44.6L225.5,44.6z M274.7,31.3   c-3.7,0-3.9,0.2-3.9,2.5v10.9c0,8.1,0.4,9.2,4.7,9.6l2.2,0.2c0.5,0.3,0.3,1.7-0.2,1.9c-4.2-0.2-6.8-0.2-9.8-0.2   c-3.3,0-5.9,0.2-8.9,0.2c-0.5-0.2-0.6-1.5-0.2-1.9l1.3-0.2c4.3-0.8,4.5-1.5,4.5-9.6V16.9c0-8.1-0.5-9.4-4.5-9.7L258,7   c-0.5-0.3-0.3-1.7,0.2-1.9c3.8,0.1,6.4,0.2,9.7,0.2c3,0,5.6-0.1,8.9-0.2c0.5,0.2,0.6,1.6,0.2,1.9l-1.5,0.2   c-4.5,0.5-4.6,1.6-4.6,9.7v8.9c0,2.4,0.2,2.5,3.9,2.5h22c3.7,0,3.9-0.1,3.9-2.5v-8.9c0-8.1-0.2-9.2-4.7-9.7L294.4,7   c-0.5-0.3-0.3-1.7,0.2-1.9c3.1,0.1,6.2,0.2,9.3,0.2c3,0,5.6-0.1,9.1-0.2c0.5,0.2,0.6,1.6,0.2,1.9l-1.6,0.2   c-4.5,0.5-4.6,1.6-4.6,9.7v27.7c0,8.1,0.2,9.1,4.6,9.6l1.9,0.2c0.5,0.3,0.3,1.7-0.2,1.9c-3.1-0.1-6.2-0.2-9.3-0.2   c-3.2,0-5.9,0.1-9.3,0.2c-0.5-0.2-0.6-1.5-0.2-1.9l1.5-0.2c4.7-0.8,4.7-1.5,4.7-9.6V33.7c0-2.3-0.2-2.5-3.9-2.5L274.7,31.3   L274.7,31.3z M332.7,16.9c0-8-0.2-9.2-4.7-9.7L326.7,7c-0.5-0.3-0.3-1.7,0.2-1.9c3.3,0.2,5.9,0.2,9.1,0.2h14.5   c4.9,0,9.5,0,10.4-0.2c0.5,1.3,0.9,6.9,1.2,10.2c-0.3,0.5-1.5,0.6-1.9,0.2c-1.2-3.6-1.8-6.3-5.9-7.3c-1.6-0.4-4.1-0.5-7.5-0.5h-5.5   c-2.3,0-2.3,0.2-2.3,3.1v15.4c0,2.2,0.2,2.2,2.5,2.2h4.5c3.2,0,5.6-0.2,6.6-0.5c0.9-0.3,1.5-0.8,1.9-2.7L355,22   c0.4-0.5,1.7-0.5,2,0.1c0,1.8-0.3,4.9-0.3,7.8c0,2.8,0.3,5.7,0.3,7.4c-0.3,0.5-1.6,0.5-2,0.1l-0.7-3c-0.3-1.4-0.8-2.5-2.4-2.9   c-1.1-0.3-2.9-0.4-5.9-0.4h-4.5c-2.3,0-2.5,0.1-2.5,2.1V44c0,4.1,0.2,6.7,1.5,8c0.9,0.9,2.5,1.8,9.3,1.8c5.9,0,8.2-0.3,9.9-1.2   c1.4-0.8,3.5-3.5,5.5-7.5c0.5-0.4,1.6-0.2,1.9,0.5c-0.5,2.7-2.5,8.6-3.5,10.7c-6.9-0.2-13.8-0.2-20.6-0.2H336   c-3.3,0-5.9,0.1-10.5,0.2c-0.5-0.2-0.6-1.5-0.2-1.9l2.5-0.2c4.4-0.4,4.8-1.5,4.8-9.6L332.7,16.9L332.7,16.9L332.7,16.9z    M20.9,112.2c-3.7,0-3.9,0.2-3.9,2.5v10.9c0,8.1,0.4,9.2,4.7,9.6l2.2,0.2c0.5,0.3,0.3,1.7-0.2,1.9c-4.2-0.2-6.8-0.2-9.8-0.2   c-3.3,0-5.9,0.2-8.9,0.2c-0.5-0.2-0.6-1.5-0.2-1.9l1.3-0.2c4.3-0.8,4.5-1.5,4.5-9.6V97.8c0-8.1-0.5-9.4-4.5-9.7l-2-0.2   c-0.5-0.3-0.3-1.7,0.2-1.9c3.8,0.1,6.4,0.2,9.7,0.2c3,0,5.6-0.1,8.9-0.2c0.5,0.2,0.6,1.6,0.2,1.9l-1.5,0.2   c-4.5,0.5-4.6,1.6-4.6,9.7v8.9c0,2.4,0.2,2.5,3.9,2.5h22c3.7,0,3.9-0.1,3.9-2.5v-8.9c0-8.1-0.2-9.2-4.7-9.7l-1.5-0.2   c-0.5-0.3-0.3-1.7,0.2-1.9c3.5,0.2,6.2,0.2,9.3,0.2c3,0,5.6-0.1,9.1-0.2c0.5,0.2,0.6,1.6,0.2,1.9l-1.6,0.2   c-4.5,0.5-4.6,1.6-4.6,9.7v27.7c0,8.1,0.2,9.1,4.6,9.6l1.8,0.2c0.5,0.3,0.3,1.7-0.2,1.9c-3.1-0.1-6.2-0.2-9.3-0.2   c-3.2,0-5.9,0.1-9.3,0.2c-0.5-0.2-0.6-1.5-0.2-1.9l1.5-0.2c4.7-0.8,4.7-1.5,4.7-9.6v-10.9c0-2.3-0.2-2.5-3.9-2.5L20.9,112.2   L20.9,112.2z M115.4,105.6c0-4.8-0.2-13.6-1.5-16c-0.5-0.9-1.9-1.5-3.9-1.6l-1.9-0.2c-0.5-0.5-0.3-1.5,0.2-1.8   c2.9,0.2,5.9,0.2,8.8,0.2c3.2,0,5.3-0.1,8.1-0.2c0.6,0.4,0.5,1.4,0.2,1.8l-1.8,0.2c-1.9,0.2-3.4,0.8-3.9,1.9   c-1.1,2.5-1.1,11.4-1.1,15.7v8.7c0,6.7-1.1,13.8-5.4,18.4c-3.3,3.6-9,5.6-14.7,5.6c-5.3,0-10.6-1-14.4-4.2c-4.1-3.4-6-9-6-18.2   V97.7c0-8-0.2-9.3-4.6-9.7l-1.9-0.2c-0.5-0.3-0.3-1.6,0.2-1.8c3.9,0.2,6.5,0.2,9.5,0.2c3.2,0,5.7-0.1,9.5-0.2   c0.5,0.2,0.6,1.5,0.2,1.8L89,88c-4.5,0.4-4.6,1.7-4.6,9.7v16.6c0,12.4,3.9,20.6,15.6,20.6c11.2,0,15.4-8.8,15.4-20.5L115.4,105.6   L115.4,105.6L115.4,105.6z M149,108c0,2.1,0.2,2.1,2.5,2.1h5.2c3.2,0,5.6-0.2,6.5-0.5c0.8-0.3,1.5-0.7,1.9-2.7l0.7-3.1   c0.4-0.5,1.7-0.5,2,0c0,1.8-0.3,4.9-0.3,7.8c0,2.8,0.3,5.7,0.3,7.5c-0.3,0.5-1.5,0.5-2,0l-0.8-3c-0.4-1.4-1-2.5-2.5-2.9   c-1.1-0.3-3-0.4-5.9-0.4h-5.2c-2.3,0-2.5,0.1-2.5,2.1v10.7c0,8.1,0.2,9.2,4.7,9.6l2.6,0.2c0.5,0.3,0.3,1.7-0.2,1.9   c-4.6-0.2-7.2-0.2-10.3-0.2c-3.4,0-6,0.1-9.6,0.2c-0.5-0.2-0.6-1.5-0.2-1.9l1.9-0.2c4.5-0.5,4.6-1.5,4.6-9.6V97.8   c0-8.1-0.2-9.2-4.6-9.7l-1.2-0.2c-0.5-0.3-0.3-1.7,0.2-1.9c3.2,0.2,5.9,0.2,8.9,0.2h14.2c4.9,0,9.4,0,10.4-0.2   c0,3.5,0.1,7.2,0.2,10.2c-0.2,0.5-1.3,0.7-1.8,0.2c-0.6-3.5-1.5-6.3-5.4-7.3c-1.7-0.5-4.2-0.5-7.5-0.5h-4.7c-2.3,0-2.3,0.2-2.3,3.1   L149,108L149,108z M195.3,108c0,2.1,0.2,2.1,2.5,2.1h5.2c3.2,0,5.6-0.2,6.5-0.5c0.8-0.3,1.5-0.7,1.9-2.7l0.7-3.1   c0.4-0.5,1.7-0.5,2,0c0,1.8-0.3,4.9-0.3,7.8c0,2.8,0.3,5.7,0.3,7.5c-0.3,0.5-1.5,0.5-2,0l-0.8-3c-0.4-1.4-1-2.5-2.5-2.9   c-1.1-0.3-3-0.4-5.9-0.4h-5.2c-2.3,0-2.5,0.1-2.5,2.1v10.7c0,8.1,0.2,9.2,4.7,9.6l2.6,0.2c0.5,0.3,0.3,1.7-0.2,1.9   c-4.6-0.2-7.2-0.2-10.3-0.2c-3.4,0-6,0.1-9.6,0.2c-0.5-0.2-0.6-1.5-0.2-1.9l1.9-0.2c4.5-0.5,4.6-1.5,4.6-9.6V97.8   c0-8.1-0.2-9.2-4.6-9.7l-1.2-0.2c-0.5-0.3-0.3-1.7,0.2-1.9c3.2,0.2,5.9,0.2,8.9,0.2h14.2c4.9,0,9.4,0,10.4-0.2   c0,3.5,0.1,7.2,0.2,10.2c-0.2,0.5-1.3,0.7-1.9,0.2c-0.6-3.5-1.5-6.3-5.4-7.3c-1.7-0.5-4.2-0.5-7.5-0.5h-4.7c-2.3,0-2.3,0.2-2.3,3.1   L195.3,108L195.3,108z M235.7,97.9c0-8.2-0.2-9.5-4.7-9.9l-1.9-0.2c-0.5-0.3-0.3-1.7,0.2-1.9c3.9,0.2,6.5,0.2,9.7,0.2   c3.1,0,5.7-0.1,9.6-0.2c0.5,0.2,0.6,1.6,0.2,1.9l-1.9,0.2c-4.5,0.4-4.7,1.7-4.7,9.9v27.4c0,8.2,0.2,9.2,4.7,9.8l1.9,0.2   c0.5,0.3,0.3,1.7-0.2,1.9c-3.9-0.2-6.5-0.2-9.6-0.2c-3.2,0-5.9,0.1-9.7,0.2c-0.5-0.2-0.6-1.5-0.2-1.9l1.9-0.2   c4.5-0.5,4.7-1.6,4.7-9.8V97.9L235.7,97.9z M309.5,124c0,2.3,0,11.5,0.2,13.5c-0.2,0.5-0.6,0.8-1.5,0.8c-0.9-1.3-3.2-4-9.9-11.6   l-17.9-20.3c-2.1-2.4-7.3-8.7-8.9-10.4h-0.2c-0.3,0.9-0.4,2.7-0.4,5v16.8c0,3.6,0.1,13.6,1.4,15.9c0.5,0.9,2,1.3,3.9,1.5l2.4,0.2   c0.5,0.6,0.4,1.5-0.2,1.9c-3-0.1-6-0.2-9-0.2c-3.2,0-5.3,0.1-8,0.2c-0.5-0.4-0.6-1.5-0.2-1.9l2.1-0.2c1.8-0.2,3-0.7,3.4-1.5   c1.1-2.8,1-12.2,1-15.9V95.5c0-2.2-0.1-3.8-1.7-5.5c-1.1-1.1-2.9-1.6-4.8-1.8l-1.3-0.2c-0.5-0.5-0.5-1.6,0.2-1.9   c3.2,0.2,7.3,0.2,8.7,0.2c1.2,0,2.5-0.1,3.5-0.2c1.5,3.9,10.6,14.1,13.2,16.9l7.5,8.4c5.3,5.9,9.1,10.2,12.7,13.9h0.2   c0.3-0.4,0.3-1.6,0.3-3.2v-16.5c0-3.6-0.1-13.6-1.5-15.9c-0.5-0.7-1.7-1.2-4.8-1.5l-1.3-0.2c-0.5-0.5-0.5-1.7,0.2-1.9   c3.5,0.2,6.2,0.2,9.1,0.2c3.3,0,5.3-0.1,7.9-0.2c0.6,0.4,0.6,1.5,0.2,1.9l-1.1,0.2c-2.5,0.4-4,1-4.3,1.6   c-1.3,2.8-1.2,12.3-1.2,15.9L309.5,124L309.5,124z M372,129.2c0,3.1,0.5,4.9,1.8,5.5c0.2,0.3,0.2,0.7-0.1,0.9c0,0,0,0,0,0   c-0.9,0-2.3,0.3-3.8,0.7c-4.1,1.1-9.6,2-13.8,2c-9.2,0-17.6-2.5-23.5-8.6c-4.6-4.6-7.1-10.7-7.1-17.5c0-6.5,2.2-13.2,6.9-18.3   c5.2-5.4,12.8-9,24.4-9c4.4,0,8.5,0.8,9.8,1.2c1.5,0.3,3.8,0.8,4.8,0.7c0,2.5,0.5,6.6,1.2,11.2c-0.2,0.6-1.6,0.7-2.1,0.2   c-2.2-8.3-7.9-10.9-15.8-10.9c-14.9,0-21.5,10.6-21.5,22.2c0,14.8,7.6,26.4,23.1,26.4c4.8,0,7.6-1,8.5-2.3c0.4-0.5,0.8-1.9,0.8-4.4   v-3.1c0-6.5-0.2-6.9-5-7.5l-3.4-0.4c-0.6-0.3-0.5-1.7,0-1.9c2.2,0.2,6.5,0.2,11,0.2c3,0,5.6-0.1,8.2-0.2c0.5,0.3,0.6,1.5,0.1,1.9   l-1.2,0.2c-3.2,0.4-3.3,2.5-3.3,6.5L372,129.2L372,129.2L372,129.2z M412.8,125.5c0,8.1,0.2,9.2,4.6,9.6l2.5,0.2   c0.5,0.3,0.3,1.7-0.2,1.9c-4.4-0.2-7-0.2-10.1-0.2c-3.1,0-5.8,0.1-10.7,0.2c-0.5-0.2-0.6-1.5,0-1.9l2.8-0.2   c4.4-0.4,4.8-1.5,4.8-9.6V91.1c0-2.4,0-2.5-2.3-2.5h-4.2c-3.3,0-7.6,0.2-9.5,1.9c-1.8,1.7-2.6,3.4-3.5,5.3c-0.6,0.5-1.7,0.1-2-0.5   c1.2-3.5,2.4-8.4,2.9-11.5c0.2-0.2,1.2-0.2,1.5,0c0.5,2.5,3,2.4,6.6,2.4h31.2c4.2,0,4.9-0.2,6-2.2c0.4-0.2,1.2-0.1,1.4,0.2   c-0.9,3.2-1.4,9.4-1.2,11.7c-0.3,0.6-1.6,0.6-2,0.2c-0.2-1.9-0.8-4.8-1.9-5.6c-1.8-1.3-4.7-1.9-8.9-1.9H415c-2.3,0-2.2,0.1-2.2,2.6   L412.8,125.5L412.8,125.5L412.8,125.5z M442.5,112.2c0-15.4,11.6-27.2,27.4-27.2c17.8,0,26.7,12.9,26.7,26.4   c0,15.6-11.9,26.9-26.7,26.9C452.9,138.3,442.5,126.1,442.5,112.2 M489,113.8c0-12.7-5.6-26.4-20.3-26.4c-8,0-18.4,5.5-18.4,22.3   c0,11.4,5.5,26.2,20.7,26.2C480.2,135.9,489,129,489,113.8 M555.1,124c0,2.3,0,11.5,0.2,13.5c-0.2,0.5-0.6,0.8-1.5,0.8   c-0.9-1.3-3.2-4-9.9-11.6l-17.9-20.3c-2.1-2.4-7.3-8.7-8.9-10.4H517c-0.3,0.9-0.4,2.7-0.4,5v16.8c0,3.6,0.1,13.6,1.4,15.9   c0.5,0.9,2,1.3,3.9,1.5l2.4,0.2c0.5,0.6,0.4,1.5-0.2,1.9c-3-0.1-6-0.2-9-0.2c-3.2,0-5.3,0.1-8,0.2c-0.5-0.4-0.6-1.5-0.2-1.9   l2.1-0.2c1.8-0.2,3-0.7,3.4-1.5c1.1-2.8,1-12.2,1-15.9V95.5c0-2.2-0.1-3.8-1.7-5.5c-1.1-1.1-2.9-1.6-4.8-1.8l-1.3-0.2   c-0.5-0.5-0.5-1.6,0.2-1.9c3.2,0.2,7.3,0.2,8.7,0.2c1.2,0,2.5-0.1,3.5-0.2c1.5,3.9,10.6,14.1,13.2,16.9l7.5,8.4   c5.3,5.9,9.1,10.2,12.7,13.9h0.2c0.3-0.4,0.3-1.6,0.3-3.2v-16.5c0-3.6-0.1-13.6-1.5-15.9c-0.5-0.7-1.7-1.2-4.8-1.5l-1.3-0.2   c-0.5-0.5-0.5-1.7,0.2-1.9c3.5,0.2,6.2,0.2,9.1,0.2c3.3,0,5.3-0.1,7.9-0.2c0.6,0.4,0.6,1.5,0.2,1.9l-1.1,0.2c-2.5,0.4-4,1-4.3,1.6   c-1.3,2.8-1.2,12.3-1.2,15.9L555.1,124L555.1,124z M194.8,206.4c0,8.1,0.2,9.1,5.1,9.6l2.1,0.2c0.5,0.4,0.3,1.7-0.2,1.9   c-4.4-0.2-6.9-0.2-10-0.2c-3.2,0-6,0.1-9.4,0.2c-0.5-0.2-0.6-1.5-0.2-1.9l1.6-0.2c4.5-0.6,4.6-1.5,4.6-9.6V178   c0-6.5-0.2-7.9-3.6-8.2l-2.8-0.3c-0.5-0.5-0.5-1.6,0.2-1.9c4.1-0.5,8.9-0.6,15.3-0.6c6.4,0,11.2,0.8,14.8,3.1   c3.5,2.2,6.2,6.2,6.2,11.6c0,7.1-4.4,10.6-7.7,12.3c-3.4,1.6-7.5,2.3-10.6,2.3c-0.5-0.2-0.5-1.4-0.1-1.5   c8.3-1.5,11.3-6.2,11.3-12.9c0-7.5-4.4-12.3-12.4-12.3c-4.1,0-4.2,0.3-4.2,2.8L194.8,206.4L194.8,206.4z M229.5,193.1   c0-15.4,11.6-27.2,27.4-27.2c17.8,0,26.7,12.9,26.7,26.4c0,15.6-11.9,26.9-26.7,26.9C239.8,219.2,229.5,207,229.5,193.1 M276,194.7   c0-12.7-5.6-26.4-20.3-26.4c-8,0-18.4,5.5-18.4,22.3c0,11.4,5.5,26.2,20.7,26.2C267.2,216.8,276,209.9,276,194.7 M309.1,219.2   c-6.5,0-10.6-2-12-2.9c-0.9-1.7-1.9-7.2-2.1-10.8c0.4-0.5,1.5-0.7,1.8-0.2c1.2,3.9,4.3,11.5,13.3,11.5c6.5,0,9.6-4.2,9.6-8.9   c0-3.4-0.7-7.2-6.3-10.8l-7.3-4.8c-3.9-2.5-8.3-6.9-8.3-13.3c0-7.3,5.7-13.3,15.7-13.3c2.4,0,5.2,0.5,7.2,1c1,0.3,2.1,0.5,2.7,0.5   c0.7,1.8,1.4,6.2,1.4,9.4c-0.3,0.5-1.5,0.7-1.9,0.2c-1-3.7-3.1-8.7-10.5-8.7c-7.6,0-9.2,5-9.2,8.6c0,4.5,3.7,7.7,6.6,9.5l6.2,3.9   c4.9,3,9.6,7.5,9.6,14.8C325.5,213.5,319.1,219.2,309.1,219.2 M363.8,206.4c0,8.1,0.2,9.2,4.6,9.6l2.5,0.2c0.5,0.3,0.3,1.7-0.2,1.9   c-4.4-0.2-7-0.2-10.1-0.2c-3.1,0-5.8,0.1-10.7,0.2c-0.5-0.2-0.6-1.5,0-1.9l2.8-0.2c4.4-0.4,4.8-1.5,4.8-9.6V172   c0-2.4,0-2.5-2.3-2.5H351c-3.3,0-7.6,0.2-9.5,1.9c-1.8,1.7-2.6,3.4-3.5,5.3c-0.6,0.5-1.7,0.1-2-0.5c1.2-3.5,2.4-8.4,2.9-11.5   c0.2-0.2,1.2-0.2,1.5,0c0.5,2.5,3,2.4,6.5,2.4h31.2c4.2,0,4.9-0.2,6-2.2c0.4-0.2,1.2-0.1,1.4,0.2c-0.8,3.2-1.4,9.4-1.2,11.7   c-0.3,0.6-1.6,0.6-2,0.2c-0.2-1.9-0.8-4.8-1.9-5.6c-1.8-1.3-4.7-1.9-8.9-1.9h-5.5c-2.3,0-2.2,0.1-2.2,2.6L363.8,206.4L363.8,206.4z   "/> </g> </svg>