<svg xmlns="http://www.w3.org/2000/svg" enable-background="new 0 0 352 176" viewBox="0 0 352 176"><g fill="#010101"><path d="m121.9 166.2 7.4-39.9c.9-4.9 1.6-9.1 2.1-13.1h3.2l-1.2 8h.2c3.3-5 8-8.5 12.9-8.5 7 0 9.7 5.8 9.7 11.9 0 12.5-8.6 26.9-20.4 26.9-3.6 0-6-1.3-7.4-1.3h-.2l-2.9 16zm6.9-20.2c1.7 1.3 4.2 2.1 7.2 2.1 9.8 0 16.6-13.9 16.6-23.4 0-4.4-1.7-9.3-7.2-9.3-5.3 0-12.1 6.7-14.2 17.9z"/><path d="m181.3 151.2c-.1-3 .4-6 .9-10h-.2c-4.2 8-9 10.3-13.8 10.3-5.6 0-9-4.9-9-11.5 0-12.7 9-27.5 23.4-27.5 2.6 0 5.6.3 7.5 1l-3.9 20.4c-1.3 7-1.8 13.3-1.6 17.3zm4.9-35.3c-.8-.3-2.2-.5-4.5-.5-10.7 0-19 11.9-19.1 23.6-.1 4.9 1.3 9.2 6.3 9.2 6 0 12.8-9 14.6-18.6z"/><path d="m192.5 151.2 4.7-25.4c.9-4.7 1.5-8.6 1.8-12.6h3c-.2 3-.5 5-1 9h.2c2.2-5 5.9-9.3 10.6-9.3.5 0 1-.2 1.4-.2l-.7 3.4c-.3-.1-.7-.1-1.2-.1-4.9 0-10.3 7.8-11.8 15.9l-3.6 19.3z"/><path d="m228.3 105.1-1.6 8.1h8.7l-.6 3h-8.7l-4.1 22c-.5 2.5-.8 4.4-.8 6.4 0 2.2 1 3.5 3.3 3.5 1.2 0 2-.1 2.7-.3l.2 2.7c-1 .3-2.3.5-3.6.5-4.4 0-6.1-2.9-6.1-6 0-2 .2-3.9.8-6.7l4.2-22h-5.3l.5-3h5.4l1.2-6.7z"/><path d="m235 151.2 4.9-26.6c.8-4.4 1.3-8.4 1.6-11.4h3.2l-1.1 8h.2c3.2-5 7.9-8.6 13-8.6 3.6 0 8.3 2.2 8.3 9.2 0 1.9-.3 4.1-.7 6.1l-4.2 23.2h-3.3l4.3-23.3c.3-1.7.5-3.7.5-5.6 0-3.9-1.5-6.8-6.1-6.8-4.9 0-12 6.6-13.6 15.6l-3.6 20.1h-3.4z"/><path d="m291.8 148.2c-1.9 1.3-5.5 2.8-10.1 2.8-8.7 0-11.7-6.8-11.7-13.9 0-10.7 7.5-24.6 18.1-24.6 6.1 0 8.7 3.9 8.7 8.1 0 9.4-10.8 12-22.9 12-.4 1.7-.5 6.6.3 9.3 1.3 4.2 4.2 6.3 8.1 6.3 4.1 0 6.9-1.5 8.6-2.5zm1.6-27.6c0-3.4-2.4-5.3-5.9-5.3-5.7 0-10.8 6.2-13.1 14.2 9.7.2 19-1.5 19-8.9z"/><path d="m299 151.2 4.7-25.4c.9-4.7 1.5-8.6 1.8-12.6h3c-.2 3-.5 5-1 9h.2c2.2-5 5.9-9.3 10.6-9.3.5 0 1-.2 1.4-.2l-.7 3.4c-.3-.1-.7-.1-1.2-.1-4.9 0-10.3 7.8-11.8 15.9l-3.6 19.3z"/><path d="m318.5 146c1.3 1 3.8 2.1 6.5 2.1 4.9 0 8.2-3.5 8.2-7.7 0-3.7-1.5-5.9-5-8.2-3.7-2.4-5.7-5.7-5.7-9.2 0-5.8 4.7-10.5 11.3-10.5 2.5 0 5 .8 6.1 1.6l-1.2 2.9c-1.2-.7-3.1-1.5-5.3-1.5-4.5 0-7.5 3.2-7.5 7 0 3.5 2 5.4 5 7.5 3.6 2.4 5.7 5.8 5.7 9.6 0 7.5-5.5 11.6-11.9 11.6-3.3 0-6.3-1.2-7.5-2.2z"/></g><path d="m43.1 43.7c-.1 0-.1 0-.2 0-.8-.1-1.6-.9-1.6-1.7s-.5-19.9 10.7-24.2c2.8-1.1 5.4-.8 7.6.7 2.7 1.9 4.6 5.6 5.8 11.1.8 3.9 1 7.2 1 7.4 0 .8-.6 1.4-1.5 1.3-.8-.1-1.6-.9-1.6-1.7-.1-3.5-1.3-13-5.2-15.7-1.2-.9-2.7-1-4.6-.2-9.6 3.7-9.1 21.6-9.1 21.8 0 .6-.6 1.2-1.3 1.2z" fill="#96bf47"/><path d="m66.9 24.9-43.2 13.4s-1.9.5-2.3 1c-.5.6-.6 2.1-.6 2.1l-6.6 51.6 50.2 9.4 3.9-77.5c-.6-.1-1.2 0-1.4 0z" fill="#96bf47"/><path d="m81.9 31.6s-.1-.4-.3-.5-.5-.2-.5-.2l-7.1-.5-5.2-5.2c-.2-.2-.4-.2-.7-.3l-3.9 77.5 27.2-5.9z" fill="#5f8f3e"/><path d="m49.1 68c-.8-1-1.7-1.9-2.6-2.7s-1.9-1.5-2.9-2.1c-.7-.4-1.3-.8-1.8-1.2s-.9-.8-1.2-1.2-.6-.8-.7-1.2c-.2-.4-.2-.8-.2-1.2 0-.6.2-1.1.4-1.6s.5-.9.9-1.2.9-.6 1.4-.8c.6-.2 1.2-.3 1.9-.4.8 0 1.5 0 2.2.1s1.4.2 2 .4 1.2.3 1.8.5c.5.2 1 .4 1.4.6l3.3-10c-.5-.3-1.1-.5-1.8-.7s-1.5-.4-2.3-.5-1.8-.2-2.7-.2c-1 0-2 .1-3 .2-2.3.3-4.3.9-6.1 1.8s-3.3 2-4.5 3.4c-1.2 1.3-2.2 2.9-2.9 4.6s-1.1 3.6-1.2 5.6c-.1 1.2.1 2.3.3 3.4.3 1 .7 2 1.2 2.9s1.2 1.7 1.9 2.5 1.6 1.5 2.4 2.1c.7.5 1.3 1 1.8 1.5s.9.9 1.2 1.4.5.9.7 1.4c.1.5.2 1 .2 1.5s-.1 1-.3 1.4-.5.8-.9 1.1-.8.5-1.3.6-1.1.1-1.8 0c-.8-.1-1.5-.3-2.2-.6s-1.4-.6-2.1-1-1.3-.8-1.8-1.1c-.5-.4-1-.7-1.4-1.1l-2.3 7.6c.4.5.9 1 1.4 1.4.6.5 1.2.9 2 1.4.7.4 1.6.8 2.4 1.2.9.4 1.8.7 2.8.9 2.1.5 4.1.6 6 .3s3.7-.9 5.2-1.9c1.6-1.1 2.9-2.5 3.8-4.4 1-1.9 1.5-4.2 1.6-6.8.1-1.6-.2-3.1-.6-4.4-.2-1.3-.8-2.4-1.6-3.5z" fill="#fff"/><path d="m32.6 41.1c-.1 0-.1 0-.2 0-.8-.1-1.4-.9-1.3-1.7s3-19.9 14.9-24.2c3-1.1 5.5-.8 7.5.7 2.3 1.9 3.6 5.6 3.8 11.1.1 3.9-.3 7.2-.3 7.4-.1.8-.9 1.4-1.7 1.3s-1.4-.9-1.3-1.7c.5-3.5 1-13-2.4-15.7-1.1-.9-2.6-1-4.5-.2-10.2 3.7-12.9 21.6-13 21.8-.2.6-.8 1.2-1.5 1.2z" fill="#96bf47"/><path d="m123.2 64.6c-2.7-1.5-4.1-2.7-4.1-4.4 0-2.2 1.9-3.6 5-3.6 2.8 0 5.2.8 6.7 1.5l2.5-7.6c-1.7-1-4.9-1.8-9-1.8-9.4 0-15.8 5.3-15.8 12.9 0 4.3 3 7.5 7 9.8 3.3 1.9 4.4 3.2 4.4 5.1 0 2-1.6 3.6-4.6 3.6-3.3.1-6.8-1.3-8.7-2.3l-2.6 7.6c2 1.4 6.1 2.6 10.5 2.6 9.6.1 16.5-4.7 16.5-13.2-.1-4.6-3.6-7.8-7.8-10.2z"/><path d="m161.4 48.6c-4.7 0-8.4 2.2-11.3 5.7l-.2-.1 4.1-21.4h-10.7l-10.3 54.5h10.7l3.6-18.7c1.4-7 5-11.4 8.4-11.4 2.4 0 3.3 1.6 3.3 3.9 0 1.5-.2 3.3-.5 4.7l-4 21.4h10.7l4.2-22.1c.5-2.3.8-5.1.8-7 0-5.8-3.2-9.5-8.8-9.5z"/><path d="m194.3 48.6c-12.9 0-21.4 11.6-21.4 24.5 0 8.3 5.1 14.9 14.7 14.9 12.6 0 21.1-11.3 21.1-24.5.1-7.6-4.4-14.9-14.4-14.9zm-5.2 31.3c-3.6 0-5.2-3.1-5.2-7 0-6.1 3.2-16.1 9-16.1 3.8 0 5 3.3 5 6.4 0 6.7-3.2 16.7-8.8 16.7z"/><path d="m236.2 48.6c-4.3 0-8.4 2.3-11.3 6.3h-.2l.6-5.7h-9.4c-.5 3.9-1.3 9.8-2.2 14.2l-7.4 39.1h10.7l2.9-15.8h.2c1.2.8 3.6 1.4 6.3 1.4 12.5 0 20.8-12.9 20.8-25.9 0-7.1-3.2-13.6-11-13.6zm-10.3 31.5c-1.9 0-3.3-.6-4.4-1.5l1.8-10c1.2-6.7 4.7-11.1 8.4-11.1 3.3 0 4.3 3 4.3 5.9 0 6.8-4.1 16.7-10.1 16.7z"/><path d="m262.4 33.3c-3.4 0-6.1 2.7-6.1 6.2 0 3.2 2 5.3 5 5.3h.2c3.3 0 6.2-2.2 6.3-6.2 0-3.1-2.1-5.3-5.4-5.3z"/><path d="m247.5 87.3h10.7l7.2-37.8h-10.7z"/><path d="m292.6 49.4h-7.4l.4-1.8c.6-3.6 2.8-6.9 6.3-6.9 1.4 0 2.5.2 3.4.5l2.1-8.4c-1.2-.5-3.2-.9-5.8-.9-3.8 0-7.6 1.1-10.5 3.6-3.6 3.1-5.3 7.6-6.2 12.1l-.3 1.8h-5l-1.5 8.1h5l-5.7 29.9h10.7l5.7-29.9h7.4z"/><path d="m318.3 49.5-6.5 17c-1.5 4.1-2.3 6.5-3.2 9.1h-.2c-.2-2.5-.5-5.2-.9-9l-1.7-17h-11.2l6.4 34.8c.2.8.1 1.2-.2 1.8-1.2 2.4-3.3 4.7-5.8 6.4-2 1.5-4.3 2.4-6 3l2.9 9.1c2.2-.5 6.7-2.2 10.5-5.8 4.9-4.6 9.4-11.6 14-21.2l13.1-28h-11.2z"/></svg>