<svg xmlns="http://www.w3.org/2000/svg" enable-background="new 0 0 256.8 98.2" viewBox="0 0 256.8 98.2"><g fill="#5c6770"><g transform="matrix(.1 0 0 -.1 0 266)"><path d="m1207.2 2417.6c-.8-2.1-1.1-81.8-.5-177.2.8-172.4.8-173.4 6.6-188.2 8.3-20.6 19.8-33.1 37.7-41.9 14.5-6.9 17.3-7.5 50-7.5 31 0 36.3.8 50.8 6.6l16 6.6.8 27.8c.8 35.3.5 36.6-10.4 30.7-12.8-6.4-47.3-8.3-58-2.7-16.3 8.3-16.6 11-16.6 107.1v86.8h42.8 42.8v32.1 32.1h-42.8-42.8l-.5 44.9-.8 44.6-36.9.8c-29.2.9-36.9.3-38.2-2.6z"/><path d="m669 2333.9c-28.6-6.2-54.8-20.6-76.2-42.2-30.7-31.3-46.2-67.6-48.7-115.2-5.1-100.8 67.1-178 166-177.7 46.2.3 85.3 14.9 116 43.8l17.3 16.9-11.8 10.7c-6.4 5.9-16.3 14.7-21.9 19.5l-9.9 8.6-14.2-10.7c-7.7-6.2-21.4-14.5-30-18.4-14.2-6.6-19.3-7.5-42.8-7.5-23.2 0-28.6 1.1-41.7 6.9-24.3 11.5-42.2 33.4-50 62l-2.7 9.9h118.6 118.8l1.8 9.9c3 15.2-3.5 60.7-11.8 85-26.1 75.6-98 115.7-176.8 98.5zm68.7-66.8c7.7-3.8 17.1-10.4 20.8-14.9 9.1-10.7 19-30.2 21.4-42.2.8-5.1 2.4-11.5 3-13.9 1.3-4.5-3.8-4.8-81.8-4.8h-83.4l1.8 8.8c13.3 61.7 66.8 92.2 118.2 67z"/><path d="m215.5 2327c.5-1.8 31-74.9 67.3-162 72.2-172.9 68.7-161.2 53.2-179.3-14.2-16.9-32.4-20.3-60.1-11-9.1 3.2-16.6 5.3-17.1 4.8-4.3-5.1-23-51.1-21.9-53.7.8-2.1 12-7.2 25.1-11.5 19-6.2 28-7.7 47.6-7.7 13.4 0 28.9 1.6 35 3.5 25.1 7.5 48.1 30.2 63.6 63.1 6.2 12.8 134.1 342.1 137.1 352.5 1.3 4.3-1.6 4.5-37.4 4.5h-38.9l-13.9-39.3c-7.5-21.9-25.9-74.9-40.9-117.6-14.9-43-28-78.3-29.1-78.3-.8 0-3 4-4.5 8.8-1.6 4.5-21.9 57.4-44.9 117.6l-41.7 108.8h-39.8c-31 .1-39.8-.8-38.7-3.2z"/><path d="m857.6 2327c1.1-1.8 27-38 57.7-79.9 30.4-41.9 55.6-77.5 55.6-78.6s-25.1-36.6-55.6-78.6c-30.7-41.9-56.7-78-57.7-79.7-1.6-2.7 6.9-3.5 39-3.5l40.9.3 57.4 79.1c31.5 43.5 57.4 80.5 57.4 82.3s-25.9 38.7-57.4 82.3l-57.4 79.1-40.9.3c-32 .2-40.6-.7-39-3.1z"/><path d="m1060.7 2289.9-29.1-40.4 8-11c24.6-35 31.8-44.4 32.9-44.4 1.3 0 92.5 124.6 97 132.3 1.8 3.2-4.5 3.8-38.7 3.8l-40.9-.3z"/><path d="m1059.4 2126.3c-6.6-9.1-15.5-21.7-19.8-27.8l-8-11 29.1-40.4 29.1-40.4h40.9c33.9 0 40.7.5 38.7 3.8-4.8 8.3-95.7 132.6-97 132.6-.7-.2-6.6-7.7-13-16.8z"/></g><path d="m159.8 46.3c-1 0-1.9-.2-2.7-.5-.8-.4-1.5-.8-2.1-1.4s-1.1-1.3-1.4-2.2c-.3-.8-.5-1.7-.5-2.7 0-.9.2-1.8.5-2.7s.8-1.6 1.4-2.2 1.3-1.1 2.2-1.5c.8-.4 1.8-.5 2.8-.5.6 0 1.2.1 1.7.2s1 .2 1.4.4.8.4 1.2.7.7.5 1 .8l-1.5 1.7c-.5-.5-1.1-.9-1.7-1.2s-1.3-.5-2-.5c-.6 0-1.2.1-1.8.4-.5.2-1 .6-1.4 1s-.7.9-.9 1.5-.3 1.2-.3 1.8c0 .6.1 1.3.3 1.8.2.6.5 1.1.9 1.5s.9.8 1.4 1 1.1.4 1.8.4c.8 0 1.5-.2 2.1-.5s1.2-.7 1.7-1.3l1.5 1.5c-.3.4-.7.7-1.1 1s-.8.5-1.2.7-.9.4-1.4.5c-.7.3-1.3.3-1.9.3z"/><path d="m171.9 46.3c-.7 0-1.4-.1-2-.4s-1.2-.6-1.6-1.1c-.5-.5-.8-1-1.1-1.6s-.4-1.3-.4-2.1c0-.7.1-1.4.4-2 .2-.6.6-1.2 1-1.7s.9-.8 1.5-1.1 1.2-.4 2-.4 1.5.1 2.1.4 1.1.7 1.5 1.2.7 1.1.9 1.7.3 1.3.3 2.1v.3.3h-7.3c.1.8.5 1.4 1 1.9.5.4 1.2.7 1.9.7.6 0 1.1-.1 1.5-.3s.8-.5 1.2-.9l1.3 1.2c-.5.6-1.1 1-1.7 1.4-.8.2-1.6.4-2.5.4zm2.3-5.9c0-.4-.1-.7-.2-1s-.3-.6-.5-.8-.5-.4-.8-.6c-.3-.1-.6-.2-1-.2-.7 0-1.3.2-1.8.7s-.7 1.1-.8 1.9z"/><path d="m178.7 36.1h2.3v2.3c.3-.8.8-1.4 1.3-1.8.6-.5 1.3-.7 2.2-.6v2.4h-.1c-.5 0-1 .1-1.4.2-.4.2-.8.4-1.1.7s-.5.7-.7 1.2-.2 1.1-.2 1.7v3.8h-2.3z"/><path d="m189.9 46.3c-.4 0-.8-.1-1.2-.2s-.7-.3-.9-.5-.5-.5-.6-.9-.2-.8-.2-1.4v-5.3h-1.3v-2h1.3v-2.7h2.3v2.7h2.7v2h-2.7v5c0 .4.1.8.3 1s.5.3.9.3c.5 0 1-.1 1.4-.3v1.9c-.3.2-.6.3-.9.4-.3-.1-.6 0-1.1 0z"/><path d="m194.4 32.4h2.5v2.2h-2.5zm0 3.7h2.3v10h-2.3z"/><path d="m200.2 38.1h-1.2v-1.9h1.3v-.7c0-1.1.3-1.9.8-2.5.5-.5 1.3-.8 2.3-.8.4 0 .8 0 1 .1.3.1.6.1.8.2v1.9c-.2-.1-.4-.1-.6-.2-.2 0-.4-.1-.7-.1-.9 0-1.3.5-1.3 1.5v.5h2.6v1.9h-2.6v8h-2.3v-7.9zm6.7-5.7h2.5v2.2h-2.5zm.1 3.7h2.3v10h-2.3z"/><path d="m216.8 46.3c-.7 0-1.4-.1-2-.4s-1.2-.6-1.6-1.1c-.5-.5-.8-1-1.1-1.6s-.4-1.3-.4-2.1c0-.7.1-1.4.4-2 .2-.6.6-1.2 1-1.7s.9-.8 1.5-1.1 1.2-.4 2-.4 1.5.1 2.1.4 1.1.7 1.5 1.2.7 1.1.9 1.7.3 1.3.3 2.1v.3.3h-7.4c.1.8.5 1.4 1 1.9.5.4 1.2.7 1.9.7.6 0 1.1-.1 1.5-.3s.8-.5 1.2-.9l1.3 1.2c-.5.6-1.1 1-1.7 1.4-.7.2-1.4.4-2.4.4zm2.3-5.9c0-.4-.1-.7-.2-1s-.3-.6-.5-.8-.5-.4-.8-.6c-.3-.1-.6-.2-1-.2-.7 0-1.3.2-1.8.7s-.7 1.1-.8 1.9z"/><path d="m227.8 46.3c-.6 0-1.2-.1-1.7-.3-.6-.2-1-.6-1.5-1-.4-.4-.8-1-1-1.6-.3-.6-.4-1.4-.4-2.2 0-.8.1-1.6.4-2.2s.6-1.2 1-1.6.9-.8 1.5-1 1.1-.3 1.7-.3c.8 0 1.5.2 2 .5s1 .8 1.4 1.2v-5.4h2.3v13.8h-2.3v-1.7c-.4.5-.8 1-1.4 1.3-.5.3-1.2.5-2 .5zm.5-2c.4 0 .7-.1 1.1-.2s.7-.4.9-.7c.3-.3.5-.6.6-1s.2-.8.2-1.3c0-.5-.1-.9-.2-1.3-.2-.4-.4-.7-.6-1-.3-.3-.6-.5-.9-.6s-.7-.2-1.1-.2-.8.1-1.1.2-.7.4-.9.6c-.3.3-.5.6-.6 1-.2.4-.2.8-.2 1.3 0 .5.1.9.2 1.3.2.4.4.7.6 1 .3.3.6.5.9.6.4.2.8.3 1.1.3z"/><path d="m153.6 50.8h5.2c.8 0 1.5.1 2.1.3s1.2.5 1.6.9.8.9 1 1.4.3 1.1.3 1.8c0 .7-.1 1.4-.4 2s-.7 1-1.1 1.4c-.5.4-1 .7-1.7.9-.6.2-1.3.3-2.1.3h-2.6v4.3h-2.3zm5 6.9c.9 0 1.6-.2 2.1-.7s.8-1 .8-1.7c0-.8-.3-1.4-.8-1.8s-1.2-.6-2.1-.6h-2.7v4.8z"/><path d="m172.1 64.1v-1.2c-.3.4-.8.7-1.3 1s-1.2.4-1.9.4c-.5 0-.9-.1-1.4-.2-.4-.1-.8-.3-1.1-.6s-.6-.6-.8-1-.3-.8-.3-1.3c0-.6.1-1 .3-1.4s.5-.8.8-1 .8-.5 1.3-.6 1-.2 1.6-.2 1.1 0 1.5.1l1.2.3v-.2c0-.7-.2-1.2-.6-1.6s-1-.5-1.8-.5c-.6 0-1.1.1-1.5.2s-.9.3-1.3.5l-.6-1.8c.6-.3 1.1-.5 1.7-.6s1.3-.2 2.1-.2c1.5 0 2.6.4 3.3 1.1s1.1 1.8 1.1 3.1v5.9h-2.3zm.1-4.2c-.3-.1-.6-.2-1-.3s-.8-.1-1.3-.1c-.7 0-1.3.1-1.7.4s-.6.7-.6 1.1c0 .5.2.8.6 1.1s.8.4 1.4.4c.4 0 .7 0 1-.2.3-.1.6-.2.8-.4s.4-.4.6-.7c.1-.3.2-.5.2-.9z"/><path d="m177.1 54.1h2.3v2.3c.3-.8.8-1.4 1.3-1.8.6-.5 1.3-.7 2.2-.6v2.4h-.1c-.5 0-1 .1-1.4.2s-.8.4-1.1.7-.5.7-.7 1.2-.2 1.1-.2 1.7v3.8h-2.3z"/><path d="m188.3 64.3c-.4 0-.8 0-1.2-.2-.4-.1-.7-.3-.9-.5-.3-.2-.5-.5-.6-.9s-.2-.8-.2-1.4v-5.3h-1.3v-2h1.3v-2.7h2.3v2.7h2.7v2h-2.7v5c0 .4.1.8.3 1s.5.3.9.3c.5 0 1-.1 1.4-.3v1.9c-.3.2-.6.3-.9.4s-.7 0-1.1 0z"/><path d="m192.7 54.1h2.3v1.6c.2-.2.3-.5.5-.7s.4-.4.7-.6.5-.3.8-.4.7-.1 1-.1c1.1 0 2 .3 2.6 1s.9 1.6.9 2.8v6.4h-2.3v-5.7c0-.8-.2-1.4-.6-1.8s-.9-.6-1.6-.6-1.2.2-1.6.7-.6 1-.6 1.8v5.6h-2.3v-10z"/><path d="m209 64.3c-.7 0-1.4-.1-2-.4s-1.2-.6-1.6-1.1c-.5-.5-.8-1-1.1-1.6s-.4-1.3-.4-2.1c0-.7.1-1.4.4-2 .2-.6.6-1.2 1-1.7s.9-.8 1.5-1.1 1.2-.4 2-.4 1.5.1 2.1.4 1.1.7 1.5 1.2.7 1.1.9 1.7.3 1.3.3 2.1v.3.3h-7.3c.1.8.5 1.4 1 1.9.5.4 1.2.7 1.9.7.6 0 1.1-.1 1.5-.3s.8-.5 1.2-.9l1.3 1.2c-.5.6-1.1 1-1.7 1.4-.8.2-1.6.4-2.5.4zm2.2-5.9c0-.4-.1-.7-.2-1s-.3-.6-.5-.8-.5-.4-.8-.6c-.3-.1-.6-.2-1-.2-.7 0-1.3.2-1.8.7s-.7 1.1-.8 1.9z"/><path d="m215.8 54.1h2.3v2.3c.3-.8.8-1.4 1.3-1.8.6-.5 1.3-.7 2.2-.6v2.4h-.1c-.5 0-1 .1-1.4.2s-.8.4-1.1.7-.5.7-.7 1.2-.2 1.1-.2 1.7v3.8h-2.3z"/><path d="m128.2 90.1h-111.4c-5 0-9-4-9-9v-64.2c0-5 4-9 9-9h52.4l-4.3-6h-48.1c-8.3 0-15 6.7-15 15v64.2c0 8.3 6.7 15 15 15h115.8z"/><path d="m238.9 1.9h-166.8l4.3 6h162.5c5 0 9 4 9 9v64.2c0 5-4 9-9 9h-103.5l4.3 6h99.2c8.3 0 15-6.7 15-15v-64.2c0-8.3-6.7-15-15-15z"/></g></svg>