<svg xmlns="http://www.w3.org/2000/svg" enable-background="new 0 0 192.8 90.6" viewBox="0 0 192.8 90.6"><g clip-rule="evenodd" fill-rule="evenodd"><path d="m0 0h192.8v90.6h-192.8z" fill="#134b78"/><g fill="#fff"><path d="m112.8 37.2c-2.4 0-4.3.5-6.2 1.6 0-5.5 0-10.6.2-12.3l-11.6 2.1v1l1.2.2c1.6.3 2.1 1.2 2.4 3.3.3 4.2.2 26.3 0 30 3.1.7 6.4 1.2 9.7 1.2 9.2 0 14.7-5.7 14.7-14.7 0-7.2-4.5-12.4-10.4-12.4zm-4 25.1c-.7 0-1.6 0-2.1-.2-.2-2.4-.3-12.6-.2-21.6 1-.3 1.7-.5 2.6-.5 3.8 0 5.9 4.5 5.9 10 .1 6.9-2.5 12.3-6.2 12.3z"/><path d="m51.5 27.1h-30.5v1.6l1.7.2c2.3.3 3.1 1.7 3.5 5 .5 6.2.3 17.5 0 22.9-.3 3.3-1.2 4.8-3.5 5l-1.7.3v1.4h19.6v-1.4l-2.1-.3c-2.3-.2-3.1-1.7-3.5-5-.2-2.3-.3-5.9-.3-10.4l4.2.2c2.6 0 3.8 2.1 4.3 5h1.6v-12.4h-1.6c-.5 2.9-1.7 5-4.3 5l-4.2.2c0-5.9.2-11.4.3-14.7h6.1c4.7 0 7.1 2.9 8.8 8.1l1.7-.5z"/><path d="m61.4 36.8c8.7 0 13 5.9 13 13.7 0 7.4-4.8 13.7-13.5 13.7s-13-5.9-13-13.7c0-7.4 4.8-13.7 13.5-13.7zm-.5 1.8c-3.8 0-4.8 5.2-4.8 11.9 0 6.6 1.7 11.9 5.2 11.9 4 0 5-5.2 5-11.9-.1-6.6-1.8-11.9-5.4-11.9z"/><path d="m125.5 50.7c0-7.1 4.5-13.9 13.3-13.9 7.3 0 10.7 5.4 10.7 12.5h-16.1c-.2 6.4 2.9 11.1 9.2 11.1 2.8 0 4.2-.7 5.9-1.9l.7.9c-1.7 2.4-5.5 4.8-10.4 4.8-7.8 0-13.3-5.6-13.3-13.5zm7.9-3.3 8.1-.2c0-3.5-.5-8.7-3.5-8.7-2.8.1-4.4 4.9-4.6 8.9z"/><path d="m170.1 38.2c-2.1-.9-4.8-1.4-8-1.4-6.4 0-10.4 3.8-10.4 8.3s2.9 6.4 7.1 7.8c4.3 1.6 5.5 2.8 5.5 4.8 0 2.1-1.6 4-4.3 4-3.3 0-5.7-1.9-7.6-7.1l-1.2.3.2 7.6c2.1.9 5.9 1.6 9.2 1.6 6.8 0 11.1-3.5 11.1-8.8 0-3.6-1.9-5.7-6.4-7.4-4.8-1.9-6.6-3.1-6.6-5.4s1.6-3.8 3.6-3.8c3.1 0 5.2 1.9 6.8 6.6l1.2-.3z"/><path d="m96.9 37.5c-2.9-1.7-8.1-.9-10.9 5.4l.2-6.1-11.6 2.3v1l1.2.2c1.6.2 2.3 1 2.4 3.3.3 4.2.2 11.4 0 15.1-.2 2.1-.9 3.1-2.4 3.3l-1.2.2v1.4h16.1v-1.4l-2.1-.2c-1.7-.2-2.3-1.2-2.4-3.3-.3-3.3-.3-9.9-.2-14 .9-1.2 4.7-2.3 8.1 0z"/></g></g></svg>