<svg xmlns="http://www.w3.org/2000/svg" xmlns:xlink="http://www.w3.org/1999/xlink" enable-background="new 0 0 176.5 51.5" viewBox="0 0 176.5 51.5"><clipPath id="a"><path d="m1.5.4h173.5v50.6h-173.5z"/></clipPath><g clip-path="url(#a)" fill="#24abe2"><path d="m1.5 45.8h10.6c1.1 0 2-.9 2-2v-18.4l19.8 22 19.8-22v18.4c0 1.1.9 2 2 2h10.6v-39.4h-9c-2.6 0-4.5 1.3-5.6 2.4l-17.8 19.9-17.8-19.8c-1-1.2-3-2.4-5.6-2.4h-9v39.3z"/><path d="m120.6 45.8h52.4c1.1 0 2-.9 2-2v-10.5h-25.5l25.4-26.9h-52.4c-1.1 0-2 .9-2 2v10.6h25.5z"/><path d="m94.9.4c-16 0-29 11.2-29 25.3s13 25.3 29 25.3 29-11.2 29-25.3-12.9-25.3-29-25.3zm0 38c-8 0-14.5-5.7-14.5-12.7s6.7-12.7 14.5-12.7 14.5 5.7 14.5 12.7-6.4 12.7-14.5 12.7z"/></g></svg>