
<svg xmlns="http://www.w3.org/2000/svg" enable-background="new 0 0 244.2 53.8" viewBox="0 0 244.2 53.8" style=""><g fill="#2b2b2b"><path d="m11.1 36.3s5.4 4.9 11.4 4.9c2.4 0 5-.9 5-3.8 0-5.6-21.4-5.4-21.4-20.1 0-8.8 7.4-14.6 16.8-14.6 10.2 0 15.3 5.4 15.3 5.4l-4.9 9.5s-4.8-4.2-10.5-4.2c-2.4 0-5.1 1.1-5.1 3.7 0 6 21.4 4.9 21.4 19.9 0 7.9-6 14.8-16.8 14.8-11.1.1-17.3-6.6-17.3-6.6z"/><path d="m111.1 22.7s1.8 1.7 4.1 1.7c1.2 0 2.4-.6 2.4-2 0-2.9-7.7-2.4-7.7-7.4 0-2.7 2.3-4.7 5.5-4.7s4.9 1.7 4.9 1.7l-1.3 2.4s-1.6-1.4-3.6-1.4c-1.4 0-2.5.8-2.5 2 0 2.9 7.7 2.2 7.7 7.4 0 2.6-2 4.8-5.4 4.8-3.6 0-5.6-2.2-5.6-2.2z"/><path d="m126.7 14.9c3.4 0 5.2 2.5 5.2 5.6 0 .3-.1 1.1-.1 1.1h-8.1c.2 2 1.8 3.1 3.5 3.1 1.9 0 3.4-1.3 3.4-1.3l1.1 2.1s-1.8 1.7-4.7 1.7c-3.9 0-6.3-2.8-6.3-6.1.1-3.7 2.5-6.2 6-6.2zm2.3 4.7c0-1.6-1-2.4-2.3-2.4-1.5 0-2.5.9-2.8 2.4z"/><path d="m139 19.6h.4v-.2c0-1.5-1-2.1-2.3-2.1-1.7 0-3.2 1.1-3.2 1.1l-1.1-2.1s1.8-1.5 4.6-1.5c3.1 0 4.9 1.7 4.9 4.7v7.3h-2.7v-1c0-.5 0-.8 0-.8s-.9 2.1-3.6 2.1c-2.1 0-4-1.3-4-3.7 0-3.6 5-3.8 7-3.8zm-2.3 5.3c1.5 0 2.6-1.7 2.6-3.1v-.3h-.5c-1.5 0-3.9.2-3.9 1.8.1.9.6 1.6 1.8 1.6z"/><path d="m142.9 15.2h2.8v2 .8c.5-1.7 1.9-3 3.7-3h.5v2.9s-.3 0-.7 0c-1.2 0-2.6.7-3.2 2.5-.2.6-.3 1.2-.3 1.9v4.6h-2.9v-11.7z"/><path d="m156.1 14.9c3.1 0 4.5 1.7 4.5 1.7l-1.3 2s-1.2-1.3-3.1-1.3c-2.2 0-3.6 1.6-3.6 3.6s1.4 3.7 3.7 3.7c2 0 3.5-1.5 3.5-1.5l1.1 2.1s-1.7 1.9-4.8 1.9c-3.9 0-6.4-2.7-6.4-6.1 0-3.3 2.5-6.1 6.4-6.1z"/><path d="m161.2 10.6h2.9v5.7 1c.6-1.1 2-2.3 4-2.3 2.6 0 4.1 1.4 4.1 4.5v7.5h-2.9v-7c0-1.4-.4-2.4-1.9-2.4s-2.7 1-3.2 2.4c-.1.5-.2 1-.2 1.5v5.5h-2.9v-16.4z"/><path d="m175.4 10.6h9.8v2.6h-6.8v4.3h5.5v2.5h-5.5v4.4h7.2v2.6h-10.1v-16.4z"/><path d="m186.4 15.2h2.8v1.4.8c.5-1 1.8-2.4 4.2-2.4 2.6 0 4.1 1.4 4.1 4.5v7.5h-2.9v-7c0-1.4-.4-2.4-1.9-2.4-1.6 0-2.7 1-3.2 2.4-.2.5-.2 1-.2 1.6v5.4h-2.9z"/><path d="m203.4 29.3c1.8 0 3.3-.8 3.3-2.9v-.7c0-.3 0-.6 0-.6-.7 1-1.7 1.6-3.3 1.6-3.4 0-5.3-2.7-5.3-5.9s1.8-5.8 5.2-5.8c2.6 0 3.5 1.5 3.5 1.5h.1s0-.1 0-.3v-.9h2.7v11c0 4-3.1 5.5-6.2 5.5-1.5 0-3-.4-4.2-1l.9-2.2c.1-.1 1.5.7 3.3.7zm3.4-8.5c0-2.7-1.3-3.4-2.9-3.4-1.8 0-2.8 1.3-2.8 3.3s1.1 3.6 2.9 3.6c1.5-.1 2.8-.9 2.8-3.5z"/><path d="m213.9 15.2h2.8v1.4.8c.5-1 1.8-2.4 4.2-2.4 2.6 0 4.1 1.4 4.1 4.5v7.5h-3v-7c0-1.4-.4-2.4-1.9-2.4-1.6 0-2.7 1-3.2 2.4-.2.5-.2 1-.2 1.6v5.4h-2.9v-11.8z"/><path d="m231.3 14.9c3.4 0 5.2 2.5 5.2 5.6 0 .3-.1 1.1-.1 1.1h-8.1c.2 2 1.8 3.1 3.5 3.1 1.9 0 3.4-1.3 3.4-1.3l1.1 2.1s-1.8 1.7-4.7 1.7c-3.9 0-6.3-2.8-6.3-6.1 0-3.7 2.5-6.2 6-6.2zm2.2 4.7c0-1.6-1-2.4-2.3-2.4-1.5 0-2.5.9-2.8 2.4z"/><path d="m210.3 10.6h2.9v2.6h-2.9zm0 4.6h2.9v11.7h-2.9z"/></g><path d="m108.1 39.3h2.9v.8c0 1.9 1.1 2.6 2.2 2.6s2.1-.7 2.1-2.4v-8.9h-4.2v-2.6h7.2v11.5c0 3.6-2.6 5.1-5.1 5.1s-5.1-1.6-5.1-5.1z" fill="#71c21b"/><path d="m125.4 33.1c3.6 0 6.5 2.6 6.5 6.1 0 3.6-2.9 6.1-6.4 6.1-3.6 0-6.5-2.5-6.5-6.1-.1-3.6 2.8-6.1 6.4-6.1zm0 9.8c1.9 0 3.5-1.5 3.5-3.7s-1.6-3.7-3.5-3.7-3.5 1.5-3.5 3.7 1.6 3.7 3.5 3.7z" fill="#71c21b"/><path d="m132.4 33.4h2.9v6.9c0 1.4.4 2.4 1.8 2.4 2.1 0 3.3-1.9 3.3-4v-5.4h2.9v11.7h-2.8v-1.3c0-.5 0-.8 0-.8-.6 1.2-2.1 2.4-4.1 2.4-2.5 0-4.1-1.3-4.1-4.5v-7.4z" fill="#71c21b"/><path d="m144.1 33.4h2.8v2 .8c.5-1.7 1.9-3 3.7-3h.5v2.9s-.3 0-.7 0c-1.2 0-2.6.7-3.2 2.5-.2.6-.3 1.2-.3 1.9v4.6h-2.9v-11.7z" fill="#71c21b"/><path d="m152 33.4h2.8v1.4.8c.5-1 1.8-2.4 4.2-2.4 2.6 0 4.1 1.4 4.1 4.5v7.5h-2.9v-6.9c0-1.4-.4-2.4-1.9-2.4-1.6 0-2.7 1-3.2 2.4-.2.5-.2 1-.2 1.6v5.4h-2.9z" fill="#71c21b"/><path d="m170.5 37.6h.4v-.2c0-1.5-1-2.1-2.3-2.1-1.7 0-3.2 1.1-3.2 1.1l-1.1-2.1s1.8-1.4 4.6-1.4c3.1 0 4.9 1.7 4.9 4.7v7.4h-2.7v-1c0-.5 0-.8 0-.8s-.9 2.1-3.6 2.1c-2.1 0-4-1.3-4-3.7 0-3.7 5.1-4 7-4zm-2.3 5.4c1.5 0 2.6-1.7 2.6-3.1v-.3h-.5c-1.5 0-3.9.2-3.9 1.8.1.9.6 1.6 1.8 1.6z" fill="#71c21b"/><path d="m174.5 28.7h2.9v12.2c0 1.3.4 1.6 1.2 1.6h.4v2.5s-.4.1-.9.1c-1.6 0-3.6-.4-3.6-3.8z" fill="#71c21b"/><path d="m81.8 3.6v10h9.9v22.7c0 3.5-1.7 5.1-4.2 5.1-1.3 0-2.7-.5-3.5-1.7-.6-.9-.9-2.2-.9-4v-2.5h-11.6v3.5c0 10.3 7.9 15.4 15.9 15.4s16-5 16-15.4v-33.1z" fill="#71c21b"/><path d="m70.2 41.2h-18v-9h14.5v-10h-14.5v-8.6h20.1v-10h-31.7v47.5h36.6c-4.1-2.7-6.1-6.7-7-9.9z" fill="#2b2b2b"/><path d="m236.8 9.8h1c.3 0 .5 0 .6.1.3.1.5.4.5.8s-.2.7-.5.8 0 0 .1.2l.6 1.1h-.6l-.6-1.1h-.5v1.1h-.6zm1.1 1.5c.3 0 .5-.2.5-.5s-.1-.5-.6-.5h-.4v1z" fill="#2b2b2b"/><path d="m237.8 14.3c-1.6 0-2.9-1.3-2.9-2.9s1.3-2.9 2.9-2.9 2.9 1.3 2.9 2.9-1.3 2.9-2.9 2.9zm0-5.2c-1.3 0-2.3 1.1-2.3 2.3s1.1 2.3 2.3 2.3 2.3-1.1 2.3-2.3-1-2.3-2.3-2.3z" fill="#2b2b2b"/></svg>