<svg xmlns="http://www.w3.org/2000/svg" enable-background="new 0 0 647 90" viewBox="0 0 647 90" fill="#b94f26"><path d="m284.4 69.2c-1 0-1.9.4-2.8 1.1-.8.8-1.5 1.8-2 3.2-1 2.8-.5 4.3 1.6 4.3.9 0 2.1-.2 3.5-.7l-.8 2.3c-1.2.4-2.5.7-3.7.7-1.9 0-3.1-.6-3.6-1.7-.6-1.1-.5-2.7.3-4.8.5-1.3 1.1-2.5 2-3.5.8-1 1.8-1.8 2.9-2.3s2.3-.8 3.5-.8 2.4.3 3.4.9l-1.7 2.2c-.4-.2-.8-.4-1.2-.6-.5-.2-.9-.3-1.4-.3z"/><path d="m304.1 73.5c-.8 2.1-1.9 3.7-3.3 4.9-1.5 1.1-3.2 1.7-5.1 1.7-2 0-3.2-.6-3.9-1.7-.6-1.1-.6-2.8.2-4.9s1.9-3.7 3.3-4.9c1.5-1.1 3.2-1.7 5.1-1.7 2 0 3.2.6 3.9 1.7.6 1.1.6 2.7-.2 4.9zm-9.3 0c-.5 1.4-.6 2.5-.4 3.2.3.7 1 1.1 2 1.1 2.2 0 3.8-1.4 4.8-4.3s.5-4.3-1.6-4.3c-1.1 0-2 .4-2.8 1.1s-1.5 1.7-2 3.2z"/><path d="m313.8 79.8.6-10h-.1c-.6 2-1.1 3.4-1.3 4.1l-2.2 5.9h-2.4l4.6-12.7h3.7l-.5 9.7h.1l6.7-9.7h3.7l-4.6 12.7h-2.5l2.2-6c.1-.3.2-.6.4-1 .1-.4.5-1.4 1.2-3h-.1l-6.9 10z"/><path d="m341.3 71.1c-.5 1.4-1.3 2.4-2.4 3.1s-2.5 1.1-4.1 1.1h-1.2l-1.6 4.5h-2.7l4.6-12.7h4.1c1.5 0 2.6.3 3.2 1 .5.7.6 1.7.1 3zm-6.8 2h.9c.8 0 1.5-.2 2-.5s.9-.8 1.1-1.4.2-1.1 0-1.4-.7-.5-1.5-.5h-1.2z"/><path d="m351.8 79.8h-7.3l4.6-12.7h7.3l-.8 2.2h-4.6l-1 2.8h4.3l-.8 2.2h-4.3l-1.2 3.3h4.6z"/><path d="m363.7 79.8h-2.7l3.8-10.5h-3.5l.8-2.2h9.6l-.8 2.2h-3.5z"/><path d="m373.3 79.8 4.6-12.7h2.7l-4.6 12.7z"/><path d="m388.2 79.8h-2.7l3.8-10.5h-3.5l.8-2.2h9.6l-.8 2.2h-3.5z"/><path d="m397.8 79.8 4.6-12.7h2.7l-4.6 12.7z"/><path d="m419.9 67.1h2.7l-9 12.7h-2.9l.3-12.7h2.7l-.4 7.6c0 .4-.1 1-.2 1.6s-.1 1-.2 1.2c.3-.5.8-1.5 1.7-2.8z"/><path d="m431.3 79.8h-7.3l4.6-12.7h7.3l-.8 2.2h-4.6l-1 2.8h4.3l-.8 2.2h-4.3l-1.2 3.3h4.6z"/><path d="m451.8 79.8 4.6-12.7h2.7l-4.6 12.7z"/><path d="m473 79.8h-3.4l-2-9.6h-.1c-.5 1.7-.9 2.9-1.2 3.6l-2.2 6h-2.4l4.6-12.7h3.4l2.1 9.5h.1c.5-1.7.9-2.8 1.1-3.5l2.2-6h2.4z"/><path d="m485.3 79.8h-2.7l3.8-10.5h-3.5l.8-2.2h9.6l-.8 2.2h-3.5z"/><path d="m502.2 79.8h-7.3l4.6-12.7h7.3l-.8 2.2h-4.6l-1 2.8h4.3l-.8 2.2h-4.3l-1.2 3.3h4.6z"/><path d="m509 79.8 4.6-12.7h2.7l-3.8 10.5h5.2l-.8 2.2z"/><path d="m523 79.8 4.6-12.7h2.7l-3.8 10.5h5.2l-.8 2.2z"/><path d="m537.1 79.8 4.6-12.7h2.7l-4.6 12.7z"/><path d="m554.5 72.7h5.1l-2.4 6.6c-.9.3-1.8.5-2.5.6-.8.1-1.5.2-2.3.2-1.9 0-3.2-.6-3.8-1.7s-.5-2.8.3-4.9c.7-2.1 1.9-3.7 3.5-4.8 1.6-1.2 3.4-1.7 5.5-1.7 1.3 0 2.5.3 3.5.8l-1.7 2.2c-.8-.5-1.6-.7-2.6-.7-1.2 0-2.2.4-3.2 1.2s-1.7 1.8-2.2 3.2-.6 2.4-.3 3.2c.3.7 1 1.1 2.1 1.1.6 0 1.2-.1 1.8-.2l1-2.7h-2.4z"/><path d="m571.4 79.8h-7.4l4.6-12.7h7.3l-.8 2.2h-4.6l-1 2.8h4.3l-.8 2.2h-4.3l-1.2 3.3h4.6z"/><path d="m589.5 79.8h-3.4l-2-9.6h-.1c-.5 1.7-.9 2.9-1.2 3.6l-2.2 6h-2.4l4.6-12.7h3.4l2.1 9.5h.1c.5-1.7.9-2.8 1.1-3.5l2.2-6h2.4z"/><path d="m606 69.2c-1 0-1.9.4-2.8 1.1-.8.8-1.5 1.8-2 3.2-1 2.8-.5 4.3 1.6 4.3.9 0 2.1-.2 3.5-.7l-.8 2.3c-1.2.4-2.5.7-3.7.7-1.9 0-3.1-.6-3.6-1.7-.6-1.1-.5-2.7.3-4.8.5-1.3 1.1-2.5 2-3.5.8-1 1.8-1.8 2.9-2.3s2.3-.8 3.5-.8 2.4.3 3.4.9l-1.7 2.2c-.4-.2-.8-.4-1.2-.6-.5-.2-.9-.3-1.4-.3z"/><path d="m619.4 79.8h-7.3l4.6-12.7h7.3l-.8 2.2h-4.6l-1 2.8h4.3l-.8 2.2h-4.3l-1.2 3.3h4.6z"/><path d="m450.8 16.8h-55.4l-14.3 39.2h10.9l10.8-29.7h13.5c1.5 0 2.3 1.2 1.7 2.7l-9.8 27h10.8l9.8-27c.5-1.5 2.2-2.7 3.7-2.7h10.8c1.5 0 2.3 1.2 1.7 2.7l-9.8 27h10.8l11.3-31.1c1.6-4.4-1.3-8.1-6.5-8.1z"/><path d="m526.1 43.8c-.5 1.5-2.2 2.7-3.7 2.7h-13.5c-1.5 0-2.3-1.2-1.7-2.7l9.8-27h-10.8l-11.3 31.1c-1.6 4.5 1.3 8.1 6.5 8.1h24.3c3.7 0 7.6-2.4 8.7-5.4l12.3-33.8h-10.8z"/><path d="m346.4 43.8 1-2.7h32.4l3.4-9.5 2.5-6.8c1.6-4.5-1.3-8.1-6.5-8.1h-27c-3.7 0-7.6 2.4-8.7 5.4l-9.3 25.7c-1.6 4.5 1.3 8.1 6.5 8.1h33.8l3.4-9.5h-29.7c-1.6.1-2.3-1.1-1.8-2.6zm5.4-14.8c.5-1.5 2.2-2.7 3.7-2.7h16.2c1.5 0 2.3 1.2 1.7 2.7l-1 2.7h-21.6z"/><path d="m630.5 16.8-5.5 14.9h-18.9l5.4-14.9h-10.8l-14.2 39.2h10.8l5.4-14.9h18.9l-5.4 14.9h10.8l14.3-39.2z"/><path d="m465 22.2-12.3 33.8h10.8l9.8-27c.5-1.5 2.2-2.7 3.7-2.7h19l3.4-9.5h-25.7c-3.7 0-7.6 2.4-8.7 5.4z"/><path d="m296.2 22.2-4 10.8c-1.6 4.5 1.3 8.1 6.5 8.1h17.6c1.5 0 2.3 1.2 1.7 2.7-.5 1.5-2.2 2.7-3.7 2.7h-27l-3.4 9.5h33.8c3.7 0 7.6-2.4 8.7-5.4l3.9-10.8c1.6-4.5-1.3-8.1-6.5-8.1h-17.6c-1.5 0-2.3-1.2-1.7-2.7.5-1.5 2.2-2.7 3.7-2.7h27l3.4-9.5h-33.8c-3.6 0-7.5 2.4-8.6 5.4z"/><path d="m551.5 22.2-3.9 10.8c-1.6 4.5 1.3 8.1 6.5 8.1h17.6c1.5 0 2.3 1.2 1.7 2.7-.5 1.5-2.2 2.7-3.7 2.7h-27l-3.4 9.5h33.7c3.7 0 7.6-2.4 8.7-5.4l3.9-10.8c1.6-4.5-1.3-8.1-6.5-8.1h-17.6c-1.5 0-2.3-1.2-1.7-2.7.5-1.5 2.2-2.7 3.7-2.7h27l3.4-9.5h-33.8c-3.6 0-7.5 2.4-8.6 5.4z"/><path d="m250.1 22.8c-8.1-8.4-19.1-11.3-33.2-8.7 0 0-16.9 4-31.7 4.3-6.3.1-11.7-1.8-16.3-2.8 2.5 4 6.3 6.7 10.5 8.3 4 1.5 9.5 3.8 7.1 7.6-2.8 4.3-7.1.7-8.2-.2-4-3-5.9-5.3-13.1-9.6-7.9-4.7-19-4.8-30.1-3.7 0 0 9.1 1.9 13.1 6 0 0-17.6-3.6-29 2 16.6.6 35 3.3 38.1 4.7s1.6 2.5-1.4 3.1c-7.4 1.6-21.1 2.1-29.6-.3-12.2-3.5-22.6-13.7-40.1-11 15.5 3.2 23.7 17.7 40.5 21.2 16.9 3.4 28.2-3.3 32-4.2s7.2.4 8.1 3-2.5 5.9-7.1 6.7c-3.4.6-4.6.7-10.8 1.4-12.9 1.3-22.1-.3-30.4-2.5-15.5-4.3-26.3-14.7-31.5-17.4-5.2-2.8-10.9-4.1-15.4-4.7 0 0 8.5 4.4 11.7 9.9-7.6-2.9-18.8-4.6-33.5-1.6-7.8 1.4-22.7 5-41.2 12.3 9.2 2.8 20.9.7 26 .2 27.6-2.2 36.8 3.8 45.5 6.9 26.9 9.6 36.1 1 37.9 3.8 1.3 2-7.3 5.6-9.7 6-12.1 2.3-18 .1-29.2-2.6 5.6 5.6 16.2 9.6 28.2 9.1 12.3-.6 25.2-2.5 35.5-6.9 12.1-5.1 17.2-6.7 22.7-8.3 2.4-.6 10.8-2.9 12.5-.6 1 1.3-.6 2.4-3.3 3.5-2.1.9-4.8 1.8-7.4 2.8-6 2.3-17.1 6.4-20.6 9.3 0 0 15.7-2.4 31.1-2.4 15.3 0 25.8 3.2 37.4 7.6 12.4 4.6 23.2 3 32.5-4.7 8.3-7 12.3-15.2 12-24.6-.1-8.9-3.4-16.6-9.6-22.9zm-21.8 48.8c-14.4 0-26.1-11.7-26.1-26.1s11.7-26.1 26.1-26.1 26.1 11.7 26.1 26.1c0 14.5-11.6 26.1-26.1 26.1z"/><path d="m228.3 24.9c-11.4 0-20.6 9.2-20.6 20.6s9.2 20.6 20.6 20.6 20.6-9.2 20.6-20.6c.1-11.3-9.2-20.6-20.6-20.6zm9.6 34.3c2.3-2.9 3.7-6.6 3.7-10.7 0-8.4-6-15.4-14-16.9.8-1 1.6-2 2.5-2.9 8.1 1.4 14.3 8.4 14.3 17 .1 5.5-2.5 10.3-6.5 13.5z"/></svg>